<?xml version="1.0" encoding="utf-8"?>
<!-- Generator: Adobe Illustrator 16.2.1, SVG Export Plug-In . SVG Version: 6.00 Build 0)  -->
<!DOCTYPE svg PUBLIC "-//W3C//DTD SVG 1.1//EN" "http://www.w3.org/Graphics/SVG/1.1/DTD/svg11.dtd">
<svg version="1.1" id="Layer_1" xmlns="http://www.w3.org/2000/svg" xmlns:xlink="http://www.w3.org/1999/xlink" x="0px" y="0px"
	 width="240px" height="234.002px" viewBox="0 0 240 234.002" enable-background="new 0 0 240 234.002" xml:space="preserve">
<g>
	<rect fill-rule="evenodd" clip-rule="evenodd" fill="#FEFFFF" width="240" height="234.002"/>
	<rect fill="#FFFFFF" width="240" height="234"/>
	<path id="_xAE__1_" fill-rule="evenodd" clip-rule="evenodd" fill="#ED1C24" d="M213.226,163.333h0.869
		c1.049,0,1.451,0.268,1.451,0.645c0,0.269-0.335,0.649-1.518,0.649h-0.803V163.333z M213.226,165.564h0.668
		c0.135,0,0.201,0.066,0.312,0.18c0.67,0.758,1.34,1.581,1.584,1.941c0.045,0.11,0.135,0.11,0.246,0.11h0.982
		c0.134,0,0.134-0.11,0.066-0.179c-0.379-0.535-1.405-1.986-1.674-2.366c0.781-0.312,1.16-0.758,1.16-1.359
		c0-0.917-0.691-1.495-2.409-1.495h-1.874c-0.045,0-0.09,0.044-0.09,0.111v5.178c0,0.043,0,0.11,0.09,0.11h0.848
		c0.09,0,0.09-0.067,0.09-0.11V165.564z M214.319,169.602c-2.611,0-4.441-2.053-4.441-4.663s1.83-4.395,4.328-4.395
		c2.789,0,4.686,1.963,4.686,4.395C218.892,167.549,217.175,169.602,214.319,169.602z M214.319,170.607c3.279,0,5.6-2.456,5.6-5.668
		c0-2.989-2.254-5.331-5.6-5.331c-3.26,0-5.467,2.342-5.467,5.331C208.853,168.151,211.06,170.607,214.319,170.607z"/>
	<path fill-rule="evenodd" clip-rule="evenodd" fill="#ED1C24" d="M126.91,36.806c-1.908-6.77-6.525-10.172-10.398-9.673
		c-4.746,0.614-9.708,3.383-11.676,7.795c-5.607,12.566,6.096,49.729,7.879,55.925c-11.367,34.353-50.399,102.438-69.526,107.035
		c-0.36-4.512,1.999-17.488,27.231-33.726c1.299-1.354,2.782-3.108,3.478-4.166c-21.256,10.354-48.947,27.073-32.313,39.55
		c0.939,0.7,2.338,1.35,3.852,1.914c12.741,4.721,30.479-10.709,48.367-45.613c19.74-6.486,35.649-11.438,58.059-14.75
		c24.646,16.654,41.086,20.061,52.293,15.82c3.082-1.164,8.039-5.053,9.379-10.234c-9.084,11.172-30.363,3.408-47.352-7.254
		c15.678-1.654,31.912-2.738,38.893-0.5c8.863,2.834,8.633,7.186,8.459,7.754c0.729-2.383,1.707-6.295-0.215-9.418
		c-7.496-12.156-41.912-5.08-54.402-3.768c-19.736-11.932-33.287-33.115-38.768-48.425C125.361,65.336,130.907,50.961,126.91,36.806
		 M118.386,78.138c-3.327-11.678-7.909-37.694-0.499-46.133C132.407,40.304,123.408,59.979,118.386,78.138 M145.533,136.101
		c-19.033,3.547-31.894,8.42-50.445,15.725c5.461-10.709,15.858-37.994,20.904-56.012
		C122.988,109.804,131.481,123.544,145.533,136.101"/>
</g>
</svg>
