<?xml version="1.0" encoding="utf-8"?>
<!-- Generator: Adobe Illustrator 17.0.0, SVG Export Plug-In . SVG Version: 6.00 Build 0)  -->
<!DOCTYPE svg PUBLIC "-//W3C//DTD SVG 1.1//EN" "http://www.w3.org/Graphics/SVG/1.1/DTD/svg11.dtd">
<svg version="1.1" id="mnemonic" xmlns="http://www.w3.org/2000/svg" xmlns:xlink="http://www.w3.org/1999/xlink" x="0px" y="0px"
	 width="240px" height="234px" viewBox="0 0 240 234" enable-background="new 0 0 240 234" xml:space="preserve">
<g>
	<radialGradient id="SVGID_1_" cx="97.7109" cy="81.2863" r="143.4321" gradientUnits="userSpaceOnUse">
		<stop  offset="0" style="stop-color:#160D28;stop-opacity:0.85"/>
		<stop  offset="0.7669" style="stop-color:#160D28"/>
	</radialGradient>
	<rect x="10" y="10" fill-rule="evenodd" clip-rule="evenodd" fill="url(#SVGID_1_)" width="220" height="214"/>
</g>
<g>
	<path fill-rule="evenodd" clip-rule="evenodd" fill="#8781BD" d="M0,0v233.999h240.001V0H0z M10,10h220.001v213.999H10V10z"/>
</g>
<path fill-rule="evenodd" clip-rule="evenodd" fill="#8781BD" d="M67.836,132.499l-7.92,29.865
	c-0.166,0.824-0.496,1.135-1.486,1.135H43.746c-0.99,0-1.156-0.33-0.99-1.484l28.379-99.33c0.496-1.814,0.826-3.246,0.99-8.195
	c0-0.66,0.33-0.99,0.826-0.99h20.955c0.658,0,0.988,0.166,1.154,0.99l31.846,107.689c0.164,0.826,0,1.32-0.826,1.32h-16.5
	c-0.824,0-1.32-0.311-1.484-0.969l-8.25-30.031H67.836z M95.901,116.265c-2.805-11.055-9.586-35.301-12.061-47.016h-0.164
	c-2.145,11.715-7.561,31.496-11.686,47.006L95.901,116.265z M149.505,126.499c0.166,13.531,6.602,22.605,21.781,22.605
	c5.939,0,11.029-0.785,16.309-3.096c0.66-0.33,1.156-0.164,1.156,0.66v12.541c0,0.99-0.33,1.484-0.99,1.979
	c-5.279,2.641-11.855,3.795-20.105,3.795c-26.399,0-36.3-19.469-36.3-41.25c0-23.594,12.209-42.898,33.661-42.898
	c21.779,0,29.369,18.314,29.369,33.164c0,4.785-0.33,8.746-0.824,10.561c-0.166,0.824-0.496,1.115-1.32,1.279
	c-1.98,0.33-7.92,0.66-16.666,0.66H149.505z M169.8,112.749c5.115,0,6.932,0,7.426-0.164c0-0.66,0.166-1.227,0.166-1.721
	c0-5.445-2.641-15.44-13.035-15.44c-9.57,0-13.695,8.414-14.686,17.324H169.8z"/>
</svg>
