<?xml version="1.0" encoding="utf-8"?>
<!-- Generator: Adobe Illustrator 16.2.1, SVG Export Plug-In . SVG Version: 6.00 Build 0)  -->
<!DOCTYPE svg PUBLIC "-//W3C//DTD SVG 1.1//EN" "http://www.w3.org/Graphics/SVG/1.1/DTD/svg11.dtd">
<svg version="1.1" id="mnemonic" xmlns="http://www.w3.org/2000/svg" xmlns:xlink="http://www.w3.org/1999/xlink" x="0px" y="0px"
	 width="240px" height="234px" viewBox="0 0 240 234" enable-background="new 0 0 240 234" xml:space="preserve">
<linearGradient id="SVGID_1_" gradientUnits="userSpaceOnUse" x1="119.5444" y1="185.3872" x2="120.783" y2="-0.628">
	<stop  offset="0" style="stop-color:#1A72AF"/>
	<stop  offset="1" style="stop-color:#45A7DD"/>
</linearGradient>
<rect fill="url(#SVGID_1_)" width="240" height="234"/>
<g>
	<g opacity="0.5">
		<path fill-rule="evenodd" clip-rule="evenodd" fill="#9B9B9B" d="M106.261,112.773c4.187,1.476,7.736,3.108,10.631,5.784
			c5.311,4.91,7.788,11.237,8.327,18.28c0.618,8.071-1.158,15.534-6.595,21.846c-4.324,5.02-9.921,7.932-16.17,9.66
			c-5.159,1.428-10.444,2.017-15.818,1.997c-15.672-0.059-49.732,0.024-49.732,0.024v-2.626l0.01-100.511l-0.01-2.571
			c0,0,36.454-0.077,53.402,0.146c6.861,0.09,13.638,1.252,19.689,4.953c5.194,3.176,8.312,7.776,9.608,13.69
			c1.441,6.572,1.204,12.947-1.92,19.068c-2.043,4.001-5.286,6.733-9.072,8.938C107.997,111.809,107.372,112.149,106.261,112.773z
			 M75.327,152.106c0-0.008,0-0.015,0-0.022c4.319,0,8.648,0.202,12.953-0.048c6.266-0.364,12.795-3.09,13.679-11.357
			c1.101-10.294-3.352-16.618-13.918-17.277c-8.684-0.542-28.038-0.149-28.038-0.149l-0.009,1.96l-0.008,24.951l-0.014,1.969
			C59.971,152.131,70.929,152.106,75.327,152.106z M73.682,107.43c0-0.006,0-0.013,0-0.02c3.994,0,7.988,0.026,11.981-0.021
			c0.862-0.011,1.72-0.286,2.579-0.444c5.382-0.988,9.247-5.152,9.652-10.395c0.518-6.696-2.032-10.726-7.911-12.801
			c-2.45-0.865-4.993-1.123-7.5-1.184C75.697,82.4,59.987,82.48,59.987,82.48l-0.001,1.977l0.006,23.003l1.948-0.004
			C61.939,107.456,69.768,107.43,73.682,107.43z"/>
		<path fill-rule="evenodd" clip-rule="evenodd" fill="#9B9B9B" d="M181.101,137.192c-8.48,0-27.567-0.002-27.567-0.002
			s-0.121-0.124,0.095,1.51c0.601,4.545,1.546,8.986,4.683,12.574c2.905,3.323,6.811,4.761,11.032,5.079
			c8.069,0.609,15.097-1.314,19.308-9.059c0.406-0.747,0.289-0.93,0.289-0.93l18.375-0.015c0,0,0.001,0.342-0.392,1.539
			c-4.048,12.343-12.061,20.536-24.931,23.319c-8.887,1.922-17.734,1.563-26.332-1.782c-9.731-3.787-16.37-10.707-20.042-20.347
			c-4.679-12.282-4.457-24.673,1.354-36.445c5.949-12.053,15.995-18.872,29.468-20.605c9.399-1.21,18.199,0.261,26.002,5.692
			c8.627,6.005,13.29,14.67,15.385,24.819c0.842,4.077,1.031,8.206,1.017,12.367c-0.007,1.763-0.481,2.344-2.302,2.324
			C198.062,137.142,189.582,137.192,181.101,137.192z M170.396,123.78c5.115,0,17.45,0.02,17.45,0.02s0.119-0.285-0.251-1.872
			c-1.646-7.07-4.386-12.755-13.296-14.176c-9.493-1.514-18.964,3.557-20.402,14.177c-0.24,1.774-0.24,1.862-0.24,1.862
			S165.44,123.78,170.396,123.78z"/>
		<rect x="148.287" y="69.988" fill-rule="evenodd" clip-rule="evenodd" fill="#9B9B9B" width="45.638" height="11.051"/>
	</g>
	<g>
		<g>
			<path fill-rule="evenodd" clip-rule="evenodd" fill="#FFFFFF" d="M106.261,110.773c4.187,1.476,7.736,3.108,10.631,5.784
				c5.311,4.91,7.788,11.237,8.327,18.28c0.618,8.071-1.158,15.534-6.595,21.846c-4.324,5.02-9.921,7.932-16.17,9.66
				c-5.159,1.428-10.444,2.017-15.818,1.997c-15.672-0.059-49.732,0.024-49.732,0.024v-2.626l0.01-100.511l-0.01-2.571
				c0,0,36.454-0.077,53.402,0.146c6.861,0.09,13.638,1.252,19.689,4.953c5.194,3.176,8.312,7.776,9.608,13.69
				c1.441,6.572,1.204,12.947-1.92,19.068c-2.043,4.001-5.286,6.733-9.072,8.938C107.997,109.809,107.372,110.149,106.261,110.773z
				 M75.327,150.106c0-0.008,0-0.015,0-0.022c4.319,0,8.648,0.202,12.953-0.048c6.266-0.364,12.795-3.09,13.679-11.357
				c1.101-10.294-3.352-16.618-13.918-17.277c-8.684-0.542-28.038-0.149-28.038-0.149l-0.009,1.96l-0.008,24.951l-0.014,1.969
				C59.971,150.131,70.929,150.106,75.327,150.106z M73.682,105.43c0-0.006,0-0.013,0-0.02c3.994,0,7.988,0.026,11.981-0.021
				c0.862-0.011,1.72-0.286,2.579-0.444c5.382-0.988,9.247-5.152,9.652-10.395c0.518-6.696-2.032-10.726-7.911-12.801
				c-2.45-0.865-4.993-1.123-7.5-1.184C75.697,80.4,59.987,80.48,59.987,80.48l-0.001,1.977l0.006,23.003l1.948-0.004
				C61.939,105.456,69.768,105.43,73.682,105.43z"/>
			<path fill-rule="evenodd" clip-rule="evenodd" fill="#FFFFFF" d="M181.101,135.192c-8.48,0-27.567-0.002-27.567-0.002
				s-0.121-0.124,0.095,1.51c0.601,4.545,1.546,8.986,4.683,12.574c2.905,3.323,6.811,4.761,11.032,5.079
				c8.069,0.609,15.097-1.314,19.308-9.059c0.406-0.747,0.289-0.93,0.289-0.93l18.375-0.015c0,0,0.001,0.342-0.392,1.539
				c-4.048,12.343-12.061,20.536-24.931,23.319c-8.887,1.922-17.734,1.563-26.332-1.782c-9.731-3.787-16.37-10.707-20.042-20.347
				c-4.679-12.282-4.457-24.673,1.354-36.445c5.949-12.053,15.995-18.872,29.468-20.605c9.399-1.21,18.199,0.261,26.002,5.692
				c8.627,6.005,13.29,14.67,15.385,24.819c0.842,4.077,1.031,8.206,1.017,12.367c-0.007,1.763-0.481,2.344-2.302,2.324
				C198.062,135.142,189.582,135.192,181.101,135.192z M170.396,121.78c5.115,0,17.45,0.02,17.45,0.02s0.119-0.285-0.251-1.872
				c-1.646-7.07-4.386-12.755-13.296-14.176c-9.493-1.514-18.964,3.557-20.402,14.177c-0.24,1.774-0.24,1.862-0.24,1.862
				S165.44,121.78,170.396,121.78z"/>
			<rect x="148.287" y="67.988" fill-rule="evenodd" clip-rule="evenodd" fill="#FFFFFF" width="45.638" height="11.051"/>
		</g>
	</g>
</g>
</svg>
