<?xml version="1.0" encoding="utf-8"?>
<!-- Generator: Adobe Illustrator 17.0.0, SVG Export Plug-In . SVG Version: 6.00 Build 0)  -->
<!DOCTYPE svg PUBLIC "-//W3C//DTD SVG 1.1 Basic//EN" "http://www.w3.org/Graphics/SVG/1.1/DTD/svg11-basic.dtd">
<svg version="1.1" baseProfile="basic" xmlns="http://www.w3.org/2000/svg" xmlns:xlink="http://www.w3.org/1999/xlink" x="0px"
	 y="0px" width="237px" height="237px" viewBox="0 0 237 237" xml:space="preserve">
<g id="guides_x5F_Xy">
</g>
<g id="Business_Catalyst">
	<g id="fm_x5F_appicon_x5F_cs4">
		<g id="badge">
			
				<radialGradient id="badgeColor_1_" cx="105.5001" cy="-2412.6169" r="874.1242" gradientTransform="matrix(1 0 0 0.25 0 614.2797)" gradientUnits="userSpaceOnUse">
				<stop  offset="0" style="stop-color:#3F3F40"/>
				<stop  offset="0.1416" style="stop-color:#38383A"/>
				<stop  offset="0.4852" style="stop-color:#2B2B2D"/>
				<stop  offset="0.7831" style="stop-color:#232224"/>
				<stop  offset="1" style="stop-color:#201F21"/>
			</radialGradient>
			<rect id="badgeColor" y="0" fill="url(#badgeColor_1_)" width="237" height="237"/>
		</g>
	</g>
	<g>
		<g>
			<path fill="#FFFFFF" d="M37.922,61.77c0-0.94,0.376-1.316,0.94-1.504c8.272-0.752,20.869-1.316,33.089-1.316
				c35.157,0,42.489,18.048,42.489,31.209c0,13.725-7.708,22.561-18.612,26.321v0.188c11.092,3.008,22.749,11.281,22.749,28.013
				c0,22.748-17.86,34.969-47.753,34.969c-10.904,0-23.125-0.564-31.208-1.506c-1.316-0.188-1.692-1.127-1.692-2.066V61.77z
				 M61.046,108.77h12.032c13.16,0,18.236-7.708,18.236-15.98c0-10.528-6.58-16.357-18.988-16.357c-4.136,0-9.776,0.188-11.28,0.376
				V108.77z M61.046,161.035c2.82,0.377,6.956,0.564,11.656,0.564c12.784,0,21.433-4.889,21.433-17.297
				c0-11.092-6.957-17.297-21.057-17.297H61.046V161.035z"/>
			<path fill="#FFFFFF" d="M197.678,172.828c0.211,1.049-0.42,2.1-1.47,2.52c-5.88,3.359-14.28,5.25-22.891,5.25
				c-28.771,0-44.941-21.631-44.941-51.662c0-30.031,19.95-53.761,48.302-53.761c8.82,0,15.12,1.68,18.9,3.57
				c1.471,1.05,1.471,1.89,1.471,3.15l-0.211,16.59c0,1.26-0.63,2.1-1.89,1.68c-5.04-2.31-9.45-3.36-15.12-3.36
				c-15.121,0-23.731,12.391-23.731,30.24c0,23.102,11.341,31.082,24.151,31.082c6.3,0,11.13-1.051,15.96-3.15
				c1.05-0.209,1.47,0.42,1.47,1.051V172.828z"/>
		</g>
		<g>
			<path fill="#201F21" d="M37.922,60.77c0-0.94,0.376-1.316,0.94-1.504c8.272-0.752,20.869-1.316,33.089-1.316
				c35.157,0,42.489,18.048,42.489,31.209c0,13.725-7.708,22.561-18.612,26.321v0.188c11.092,3.008,22.749,11.281,22.749,28.013
				c0,22.748-17.86,34.969-47.753,34.969c-10.904,0-23.125-0.564-31.208-1.506c-1.316-0.188-1.692-1.127-1.692-2.066V60.77z
				 M61.046,107.77h12.032c13.16,0,18.236-7.708,18.236-15.98c0-10.528-6.58-16.357-18.988-16.357c-4.136,0-9.776,0.188-11.28,0.376
				V107.77z M61.046,160.035c2.82,0.377,6.956,0.564,11.656,0.564c12.784,0,21.433-4.889,21.433-17.297
				c0-11.092-6.957-17.297-21.057-17.297H61.046V160.035z"/>
			<path fill="#201F21" d="M197.678,171.828c0.211,1.049-0.42,2.1-1.47,2.52c-5.88,3.359-14.28,5.25-22.891,5.25
				c-28.771,0-44.941-21.631-44.941-51.662c0-30.031,19.95-53.761,48.302-53.761c8.82,0,15.12,1.68,18.9,3.57
				c1.471,1.05,1.471,1.89,1.471,3.15l-0.211,16.59c0,1.26-0.63,2.1-1.89,1.68c-5.04-2.31-9.45-3.36-15.12-3.36
				c-15.121,0-23.731,12.391-23.731,30.24c0,23.102,11.341,31.082,24.151,31.082c6.3,0,11.13-1.051,15.96-3.15
				c1.05-0.209,1.47,0.42,1.47,1.051V171.828z"/>
		</g>
		<g>
			<path fill="#FFFFFF" d="M37.922,62.77c0-0.94,0.376-1.316,0.94-1.504c8.272-0.752,20.869-1.316,33.089-1.316
				c35.157,0,42.489,18.048,42.489,31.209c0,13.725-7.708,22.561-18.612,26.321v0.188c11.092,3.008,22.749,11.281,22.749,28.013
				c0,22.748-17.86,34.969-47.753,34.969c-10.904,0-23.125-0.564-31.208-1.506c-1.316-0.188-1.692-1.127-1.692-2.066V62.77z
				 M61.046,109.77h12.032c13.16,0,18.236-7.708,18.236-15.98c0-10.528-6.58-16.357-18.988-16.357c-4.136,0-9.776,0.188-11.28,0.376
				V109.77z M61.046,162.035c2.82,0.377,6.956,0.564,11.656,0.564c12.784,0,21.433-4.889,21.433-17.297
				c0-11.092-6.957-17.297-21.057-17.297H61.046V162.035z"/>
			<path fill="#FFFFFF" d="M197.678,173.828c0.211,1.049-0.42,2.1-1.47,2.52c-5.88,3.359-14.28,5.25-22.891,5.25
				c-28.771,0-44.941-21.631-44.941-51.662c0-30.031,19.95-53.761,48.302-53.761c8.82,0,15.12,1.68,18.9,3.57
				c1.471,1.05,1.471,1.89,1.471,3.15l-0.211,16.59c0,1.26-0.63,2.1-1.89,1.68c-5.04-2.31-9.45-3.36-15.12-3.36
				c-15.121,0-23.731,12.391-23.731,30.24c0,23.102,11.341,31.082,24.151,31.082c6.3,0,11.13-1.051,15.96-3.15
				c1.05-0.209,1.47,0.42,1.47,1.051V173.828z"/>
		</g>
		<g>
			
				<radialGradient id="SVGID_1_" cx="76.5254" cy="94.8462" r="102.0058" fx="69.1818" fy="70.9689" gradientTransform="matrix(1 -0.0054 0.0036 0.6656 -0.3377 32.1299)" gradientUnits="userSpaceOnUse">
				<stop  offset="0" style="stop-color:#FFFFFF"/>
				<stop  offset="1" style="stop-color:#D9D9D9"/>
			</radialGradient>
			<path fill="url(#SVGID_1_)" d="M37.922,61.77c0-0.94,0.376-1.316,0.94-1.504c8.272-0.752,20.869-1.316,33.089-1.316
				c35.157,0,42.489,18.048,42.489,31.209c0,13.725-7.708,22.561-18.612,26.321v0.188c11.092,3.008,22.749,11.281,22.749,28.013
				c0,22.748-17.86,34.969-47.753,34.969c-10.904,0-23.125-0.564-31.208-1.506c-1.316-0.188-1.692-1.127-1.692-2.066V61.77z
				 M61.046,108.77h12.032c13.16,0,18.236-7.708,18.236-15.98c0-10.528-6.58-16.357-18.988-16.357c-4.136,0-9.776,0.188-11.28,0.376
				V108.77z M61.046,161.035c2.82,0.377,6.956,0.564,11.656,0.564c12.784,0,21.433-4.889,21.433-17.297
				c0-11.092-6.957-17.297-21.057-17.297H61.046V161.035z"/>
			
				<radialGradient id="SVGID_2_" cx="76.5254" cy="94.8462" r="102.0058" fx="69.1818" fy="70.9689" gradientTransform="matrix(1 -0.0054 0.0036 0.6656 -0.3377 32.1299)" gradientUnits="userSpaceOnUse">
				<stop  offset="0" style="stop-color:#FFFFFF"/>
				<stop  offset="1" style="stop-color:#D9D9D9"/>
			</radialGradient>
			<path fill="url(#SVGID_2_)" d="M197.678,172.828c0.211,1.049-0.42,2.1-1.47,2.52c-5.88,3.359-14.28,5.25-22.891,5.25
				c-28.771,0-44.941-21.631-44.941-51.662c0-30.031,19.95-53.761,48.302-53.761c8.82,0,15.12,1.68,18.9,3.57
				c1.471,1.05,1.471,1.89,1.471,3.15l-0.211,16.59c0,1.26-0.63,2.1-1.89,1.68c-5.04-2.31-9.45-3.36-15.12-3.36
				c-15.121,0-23.731,12.391-23.731,30.24c0,23.102,11.341,31.082,24.151,31.082c6.3,0,11.13-1.051,15.96-3.15
				c1.05-0.209,1.47,0.42,1.47,1.051V172.828z"/>
		</g>
	</g>
</g>
</svg>
