<?xml version="1.0" encoding="utf-8"?>
<!-- Generator: Adobe Illustrator 16.2.1, SVG Export Plug-In . SVG Version: 6.00 Build 0)  -->
<!DOCTYPE svg PUBLIC "-//W3C//DTD SVG 1.1//EN" "http://www.w3.org/Graphics/SVG/1.1/DTD/svg11.dtd">
<svg version="1.1" id="Layer_3" xmlns="http://www.w3.org/2000/svg" xmlns:xlink="http://www.w3.org/1999/xlink" x="0px" y="0px"
	 width="240px" height="234px" viewBox="0 0 240 234" enable-background="new 0 0 240 234" xml:space="preserve">
<rect fill-rule="evenodd" clip-rule="evenodd" fill="#1C3A37" width="240" height="234"/>
<linearGradient id="SVGID_1_" gradientUnits="userSpaceOnUse" x1="0" y1="124.0005" x2="239.9995" y2="124.0005">
	<stop  offset="0" style="stop-color:#42C1C7;stop-opacity:0.1"/>
	<stop  offset="0.483" style="stop-color:#42C1C7"/>
	<stop  offset="1" style="stop-color:#42C1C7;stop-opacity:0.1"/>
</linearGradient>
<path opacity="0.18" fill-rule="evenodd" clip-rule="evenodd" fill="url(#SVGID_1_)" d="M0,225h240v6H0V225z M0,199h240v6H0V199z
	 M0,147h240v6H0V147z M0,121h240v6H0V121z M0,95h240v6H0V95z M0,69h240v6H0V69z M0,43h240v6H0V43z M0,17h240v6H0V17z M0,173h240v6H0
	V173z"/>
<linearGradient id="SVGID_2_" gradientUnits="userSpaceOnUse" x1="0" y1="111.0005" x2="239.9995" y2="111.0005">
	<stop  offset="0" style="stop-color:#42C1C7;stop-opacity:0.1"/>
	<stop  offset="0.483" style="stop-color:#42C1C7"/>
	<stop  offset="1" style="stop-color:#42C1C7;stop-opacity:0.1"/>
</linearGradient>
<path opacity="0.3" fill-rule="evenodd" clip-rule="evenodd" fill="url(#SVGID_2_)" d="M0,186h240v6H0V186z M0,212h240v6H0V212z
	 M0,134h240v6H0V134z M0,160h240v6H0V160z M0,108h240v6H0V108z M0,82h240v6H0V82z M0,56h240v6H0V56z M0,30h240v6H0V30z M0,4h240v6H0
	V4z"/>
<path fill-rule="evenodd" clip-rule="evenodd" fill="#42C1C7" d="M115,162.77c0,0.961-0.32,1.451-1.13,1.77
	c-4.18,1.771-10.99,2.41-17.92,2.41c-25.11,0-47.33-16.42-47.33-55.06c0-33.16,19.64-55.38,49.59-55.38
	c7.89,0,13.77,0.81,16.82,2.26c0.81,0.32,0.97,0.8,0.97,1.77v13.84c0,1.29-0.64,1.29-1.13,1.13c-3.86-1.93-9.74-3.06-16.5-3.06
	c-18.84,0-31.4,14.33-31.4,38.96c0,30.43,17.23,39.449,31.4,39.449c6.44,0,10.83-0.49,15.5-2.1c0.65-0.32,1.13-0.32,1.13,0.811
	V162.77z M191.49,125.581c0,25.109-12.881,41.369-33,41.369c-23.51,0-33.33-19.959-33.33-41.209
	c0-23.511,12.56-40.891,33.488-40.891C179.74,84.85,191.49,101.43,191.49,125.581z M142.87,125.581
	c0,15.449,5.469,26.24,15.778,26.24c8.852,0,15.131-8.531,15.131-25.92c0-14.65-4.34-26.081-15.609-26.081
	C149.148,99.82,142.87,108.67,142.87,125.581z"/>
</svg>
