<?xml version="1.0" encoding="utf-8"?>
<!-- Generator: Adobe Illustrator 16.2.1, SVG Export Plug-In . SVG Version: 6.00 Build 0)  -->
<!DOCTYPE svg PUBLIC "-//W3C//DTD SVG 1.1//EN" "http://www.w3.org/Graphics/SVG/1.1/DTD/svg11.dtd">
<svg version="1.1" id="mnemonic" xmlns="http://www.w3.org/2000/svg" xmlns:xlink="http://www.w3.org/1999/xlink" x="0px" y="0px"
	 width="240px" height="234.023px" viewBox="0 0 240 234.023" enable-background="new 0 0 240 234.023" xml:space="preserve">
<g>
	<rect id="Tile_1_" y="0.021" fill-rule="evenodd" clip-rule="evenodd" fill="#FEFFFF" width="240" height="234.002"/>
	<radialGradient id="tile_1_" cx="93.6606" cy="-18" r="383.6398" gradientUnits="userSpaceOnUse">
		<stop  offset="0" style="stop-color:#ED1C28"/>
		<stop  offset="1" style="stop-color:#84191B"/>
	</radialGradient>
	<rect id="tile" fill-rule="evenodd" clip-rule="evenodd" fill="url(#tile_1_)" width="240" height="234"/>
	<linearGradient id="icon_1_" gradientUnits="userSpaceOnUse" x1="117.6284" y1="47.1572" x2="122.6984" y2="186.0848">
		<stop  offset="0.14" style="stop-color:#FFFFFF"/>
		<stop  offset="1" style="stop-color:#ECEDED"/>
	</linearGradient>
	<path id="icon" fill-rule="evenodd" clip-rule="evenodd" fill="url(#icon_1_)" d="M188.241,151.79
		c-6.166,6.16-13.445,10.785-21.381,13.715c-2.475,0.915-5.02,1.655-7.609,2.23c-3.865,0.854-7.84,1.329-11.885,1.399
		c-0.361,0.01-0.715,0.03-1.076,0.03c-13.91,0-27.089-4.76-37.679-13.5c-1.471-1.215-2.896-2.51-4.266-3.875l-2.875-2.875
		l-6.75-6.75L76.585,124.03c-2.64-2.636-2.64-6.91,0-9.545c1.315-1.32,3.045-1.98,4.77-1.98c1.73,0,3.455,0.66,4.775,1.98
		l27.68,27.68l0.08,0.075c2.58,2.58,5.421,4.81,8.45,6.675c7.135,4.39,15.36,6.75,23.95,6.75c3.861,0,7.646-0.479,11.295-1.4
		c2.271-0.569,4.49-1.325,6.635-2.234c5.342-2.271,10.246-5.565,14.471-9.79c17.871-17.865,17.865-46.936,0-64.8
		c-8.93-8.935-20.664-13.4-32.4-13.4c-8.934,0-17.865,2.595-25.565,7.775c-3.875-3-8.055-5.505-12.47-7.48
		c10.97-9.185,24.5-13.785,38.035-13.785c15.191,0,30.381,5.78,41.945,17.34C211.37,91.025,211.366,128.66,188.241,151.79z
		 M82.97,169c-12.91,0-25.05-5.025-34.189-14.16c-18.86-18.859-18.86-49.375-0.005-68.229c9.09-9.09,21.16-14.11,34.005-14.16
		l0.189-0.005c2.42,0,4.811,0.175,7.16,0.524c2.53,0.37,5.005,0.95,7.425,1.71c4.55,1.436,8.86,3.545,12.815,6.275
		c1.85,1.28,3.625,2.69,5.31,4.24c0.5,0.465,1,0.93,1.485,1.415l3.32,3.325l16.09,16.095c2.64,2.635,2.635,6.91,0,9.545
		c-1.315,1.314-3.045,1.975-4.771,1.975c-1.729,0-3.455-0.66-4.774-1.975L110.76,99.3l-3.385-3.38c-0.515-0.51-1.05-0.99-1.59-1.465
		c-4.695-4.075-10.3-6.78-16.34-7.905c-2.115-0.395-4.275-0.604-6.47-0.604c-0.335,0-0.665,0.015-1,0.024
		c-8.935,0.25-17.305,3.84-23.65,10.186C44.73,109.75,44.73,131.7,58.32,145.295c6.59,6.58,15.345,10.205,24.655,10.205h6.15
		l5.675,5.51c2.885,2.885,5.975,5.66,9.23,7.99H82.97z M197.78,58.345C184.045,44.61,165.76,37.05,146.29,37.05
		c-19.469,0-37.754,7.561-51.49,21.295l-1.475,1.476c-3.39-0.57-6.845-0.875-10.355-0.875c-16.52,0-32.055,6.435-43.74,18.12
		c-24.12,24.115-24.115,63.2,0.005,87.325C50.925,176.07,66.46,182.5,82.97,182.5h63.32h0.555c0.17,0,0.342-0.01,0.516-0.015
		c19.051-0.271,36.92-7.65,50.426-21.15C226.18,132.939,226.174,86.74,197.78,58.345z"/>
	<g>
		<g>
			<g>
				<path fill="#FFFFFF" d="M194.329,174.66h-2.52v-0.908h6.127v0.908h-2.526v7.37h-1.081V174.66z"/>
				<path fill="#FFFFFF" d="M205.836,178.396c-0.063-1.153-0.137-2.543-0.123-3.573h-0.04c-0.281,0.968-0.626,2.012-1.044,3.143
					l-1.459,4.015h-0.812l-1.336-3.941c-0.395-1.167-0.726-2.235-0.961-3.216h-0.023c-0.023,1.03-0.086,2.42-0.159,3.656
					l-0.222,3.551h-1.019l0.574-8.278h1.365l1.413,4.005c0.345,1.018,0.623,1.926,0.835,2.788h0.036
					c0.209-0.835,0.504-1.747,0.872-2.788l1.473-4.005h1.362l0.517,8.278h-1.044L205.836,178.396z"/>
			</g>
		</g>
	</g>
</g>
</svg>
