<?xml version="1.0" encoding="utf-8"?>
<!-- Generator: Adobe Illustrator 16.2.1, SVG Export Plug-In . SVG Version: 6.00 Build 0)  -->
<!DOCTYPE svg PUBLIC "-//W3C//DTD SVG 1.1//EN" "http://www.w3.org/Graphics/SVG/1.1/DTD/svg11.dtd">
<svg version="1.1" id="Layer_1" xmlns="http://www.w3.org/2000/svg" xmlns:xlink="http://www.w3.org/1999/xlink" x="0px" y="0px"
	 width="50px" height="62px" viewBox="0 0 50 62" enable-background="new 0 0 50 62" xml:space="preserve">
<path fill="#CCCCCC" d="M28.999,0H2C0.896,0,0,0.896,0,2v58c0,1.104,0.896,2,2,2h46c1.105,0,2-0.896,2-2V12.701L28.999,0z"/>
<radialGradient id="SVGID_1_" cx="176.9932" cy="519.0112" r="38.5049" gradientTransform="matrix(1 0 0 1 -151.9932 -488.0107)" gradientUnits="userSpaceOnUse">
	<stop  offset="0" style="stop-color:#FFFFFF"/>
	<stop  offset="0.3879" style="stop-color:#FCFCFC"/>
	<stop  offset="0.7015" style="stop-color:#F2F2F2"/>
	<stop  offset="0.9888" style="stop-color:#E1E1E1"/>
	<stop  offset="1" style="stop-color:#E0E0E0"/>
</radialGradient>
<path fill="url(#SVGID_1_)" d="M2,61.5c-0.827,0-1.5-0.674-1.5-1.5V2c0-0.827,0.673-1.5,1.5-1.5h26.866L49.5,12.99V60
	c0,0.826-0.672,1.5-1.5,1.5H2z"/>
<path fill="#CCCCCC" d="M38.232,19.262c-0.959,0.553-2.183,0.224-2.733-0.732L28.866,0.5L49.5,12.912L38.232,19.262z"/>
<linearGradient id="SVGID_2_" gradientUnits="userSpaceOnUse" x1="190.6504" y1="495.4497" x2="174.6692" y2="517.8236" gradientTransform="matrix(1 0 0 1 -152 -488)">
	<stop  offset="0" style="stop-color:#FFFFFF"/>
	<stop  offset="0.3368" style="stop-color:#FAFAFA"/>
	<stop  offset="0.752" style="stop-color:#EBEBEB"/>
	<stop  offset="1" style="stop-color:#DEDEDE"/>
</linearGradient>
<path fill="url(#SVGID_2_)" d="M39.232,17.262c-0.957,0.553-2.183,0.224-2.733-0.732L28.866,0.5L49.5,12.912L39.232,17.262z"/>
<g>
	<path fill="#6A90A1" d="M50,12.701L28.999,0H2C0.896,0,0,0.896,0,2v20h50V12.701z"/>
</g>
<g>
	
		<radialGradient id="SVGID_3_" cx="177.4961" cy="522.4985" r="41.0657" gradientTransform="matrix(1 0 0 1 -151.9932 -488.0107)" gradientUnits="userSpaceOnUse">
		<stop  offset="0" style="stop-color:#B8E0F1"/>
		<stop  offset="0.2338" style="stop-color:#B3DBEC"/>
		<stop  offset="0.5227" style="stop-color:#A4CDDF"/>
		<stop  offset="0.8393" style="stop-color:#8BB6C9"/>
		<stop  offset="1" style="stop-color:#7BA7BB"/>
	</radialGradient>
	<path fill="url(#SVGID_3_)" d="M49.5,12.99L28.866,0.5H2C1.173,0.5,0.5,1.173,0.5,2v20h49V12.99z"/>
</g>
<path fill="#7BA7BB" d="M38.232,19.262c-0.959,0.553-2.183,0.224-2.733-0.732L28.866,0.5L49.5,12.912L38.232,19.262z"/>
<path fill="#AFD5E2" d="M39.232,17.262c-0.957,0.553-2.183,0.224-2.733-0.732L28.866,0.5L49.5,12.912L39.232,17.262z"/>
<g>
	<path fill="#FFFFFF" d="M10.269,9.764c-0.093-0.149-0.21-0.281-0.35-0.395C9.778,9.256,9.62,9.167,9.443,9.104
		C9.267,9.041,9.082,9.009,8.889,9.009c-0.354,0-0.653,0.068-0.899,0.205c-0.247,0.137-0.446,0.32-0.6,0.55
		c-0.154,0.23-0.266,0.492-0.335,0.785c-0.07,0.294-0.105,0.597-0.105,0.91c0,0.3,0.035,0.592,0.105,0.875
		c0.069,0.283,0.181,0.538,0.335,0.765c0.153,0.228,0.353,0.409,0.6,0.545c0.246,0.137,0.546,0.205,0.899,0.205
		c0.48,0,0.855-0.146,1.125-0.439c0.271-0.293,0.436-0.68,0.495-1.16h1.52c-0.039,0.446-0.143,0.85-0.31,1.21
		c-0.167,0.36-0.387,0.667-0.66,0.92c-0.273,0.254-0.593,0.447-0.96,0.58c-0.366,0.134-0.77,0.2-1.21,0.2
		c-0.547,0-1.038-0.095-1.475-0.285S6.609,14.424,6.31,14.09c-0.301-0.333-0.53-0.725-0.69-1.175c-0.16-0.45-0.24-0.935-0.24-1.455
		c0-0.533,0.08-1.028,0.24-1.485c0.16-0.456,0.39-0.854,0.69-1.193c0.3-0.34,0.668-0.606,1.104-0.8s0.928-0.29,1.475-0.29
		c0.394,0,0.765,0.057,1.115,0.17c0.35,0.113,0.663,0.278,0.939,0.495c0.277,0.216,0.506,0.483,0.686,0.804
		c0.18,0.321,0.293,0.687,0.34,1.1h-1.52C10.422,10.079,10.362,9.914,10.269,9.764z"/>
	<path fill="#FFFFFF" d="M14.299,13.239c0.087,0.166,0.202,0.302,0.345,0.404c0.144,0.104,0.312,0.181,0.506,0.23
		c0.192,0.05,0.393,0.075,0.6,0.075c0.14,0,0.29-0.012,0.45-0.035c0.16-0.023,0.31-0.068,0.45-0.135
		c0.14-0.066,0.256-0.158,0.35-0.275c0.093-0.116,0.14-0.265,0.14-0.445c0-0.192-0.062-0.35-0.185-0.47
		c-0.124-0.12-0.285-0.22-0.485-0.3c-0.2-0.08-0.427-0.15-0.68-0.21c-0.254-0.061-0.51-0.127-0.771-0.2
		c-0.267-0.066-0.526-0.148-0.779-0.245c-0.254-0.097-0.48-0.222-0.681-0.375c-0.199-0.153-0.361-0.345-0.484-0.575
		c-0.124-0.229-0.186-0.508-0.186-0.835c0-0.366,0.078-0.685,0.235-0.955C13.28,8.625,13.485,8.4,13.739,8.22
		c0.253-0.18,0.54-0.312,0.859-0.399c0.32-0.087,0.641-0.13,0.96-0.13c0.374,0,0.731,0.041,1.075,0.125
		c0.344,0.083,0.648,0.218,0.915,0.404c0.267,0.187,0.479,0.425,0.635,0.714c0.157,0.29,0.235,0.643,0.235,1.056h-1.52
		c-0.014-0.214-0.059-0.391-0.136-0.53c-0.076-0.14-0.178-0.25-0.305-0.33s-0.271-0.137-0.435-0.17s-0.342-0.05-0.535-0.05
		c-0.127,0-0.254,0.014-0.38,0.04c-0.127,0.026-0.242,0.073-0.346,0.14c-0.104,0.067-0.188,0.15-0.255,0.25
		c-0.066,0.101-0.1,0.227-0.1,0.38c0,0.141,0.026,0.254,0.08,0.34c0.053,0.087,0.158,0.167,0.314,0.24
		c0.157,0.073,0.373,0.146,0.65,0.22c0.276,0.074,0.638,0.167,1.085,0.28c0.133,0.027,0.318,0.075,0.555,0.146
		c0.236,0.069,0.472,0.182,0.705,0.335c0.233,0.153,0.436,0.358,0.605,0.614c0.17,0.257,0.255,0.586,0.255,0.985
		c0,0.327-0.063,0.63-0.19,0.91c-0.127,0.28-0.314,0.521-0.564,0.725c-0.25,0.204-0.561,0.362-0.931,0.476
		c-0.37,0.114-0.798,0.17-1.285,0.17c-0.393,0-0.774-0.049-1.145-0.146c-0.371-0.097-0.696-0.248-0.98-0.455
		c-0.283-0.206-0.508-0.47-0.675-0.79c-0.166-0.319-0.246-0.699-0.239-1.14h1.52C14.169,12.869,14.212,13.072,14.299,13.239z"/>
	<path fill="#FFFFFF" d="M20.789,13.239c0.086,0.166,0.201,0.302,0.345,0.404c0.144,0.104,0.312,0.181,0.505,0.23
		c0.193,0.049,0.394,0.075,0.6,0.075c0.141,0,0.29-0.012,0.45-0.035s0.311-0.068,0.45-0.135c0.139-0.067,0.257-0.158,0.35-0.275
		c0.094-0.116,0.141-0.265,0.141-0.445c0-0.192-0.062-0.35-0.186-0.47c-0.123-0.12-0.285-0.22-0.484-0.3
		c-0.2-0.08-0.427-0.15-0.681-0.21c-0.253-0.061-0.51-0.127-0.77-0.2c-0.267-0.066-0.526-0.148-0.78-0.245
		c-0.253-0.097-0.479-0.222-0.68-0.375c-0.201-0.153-0.362-0.345-0.485-0.575c-0.123-0.229-0.185-0.508-0.185-0.835
		c0-0.366,0.078-0.685,0.234-0.955c0.157-0.269,0.362-0.493,0.615-0.674c0.254-0.18,0.54-0.312,0.86-0.399
		c0.319-0.087,0.64-0.13,0.96-0.13c0.373,0,0.731,0.041,1.075,0.125c0.343,0.083,0.647,0.218,0.915,0.404
		c0.267,0.188,0.478,0.425,0.635,0.714c0.156,0.29,0.234,0.643,0.234,1.056h-1.52c-0.014-0.214-0.059-0.391-0.135-0.53
		c-0.077-0.14-0.179-0.25-0.306-0.33c-0.126-0.08-0.271-0.137-0.435-0.17c-0.164-0.033-0.342-0.05-0.535-0.05
		c-0.127,0-0.253,0.014-0.38,0.04c-0.127,0.026-0.241,0.073-0.345,0.14c-0.104,0.067-0.188,0.15-0.255,0.25
		c-0.067,0.101-0.101,0.227-0.101,0.38c0,0.141,0.026,0.254,0.08,0.34c0.054,0.087,0.158,0.167,0.315,0.24
		c0.156,0.073,0.373,0.146,0.649,0.22c0.277,0.074,0.639,0.167,1.085,0.28c0.134,0.027,0.318,0.075,0.556,0.146
		c0.236,0.069,0.472,0.182,0.705,0.335c0.232,0.153,0.435,0.358,0.604,0.614c0.17,0.257,0.255,0.586,0.255,0.985
		c0,0.327-0.063,0.63-0.189,0.91c-0.127,0.28-0.315,0.521-0.565,0.725c-0.25,0.204-0.56,0.362-0.93,0.476
		c-0.37,0.114-0.799,0.17-1.285,0.17c-0.394,0-0.775-0.049-1.146-0.146c-0.369-0.097-0.696-0.248-0.979-0.455
		c-0.283-0.206-0.509-0.47-0.675-0.79c-0.167-0.319-0.247-0.699-0.24-1.14h1.52C20.658,12.869,20.702,13.072,20.789,13.239z"/>
</g>
<g>
	<path fill="#A3BDD3" d="M12.942,33.227c-0.195,0-0.354,0.049-0.473,0.146c-0.116,0.102-0.212,0.229-0.284,0.385
		c-0.072,0.158-0.121,0.338-0.146,0.541c-0.028,0.203-0.04,0.412-0.04,0.621v3.598c0,0.461-0.069,0.852-0.207,1.172
		c-0.137,0.32-0.298,0.588-0.481,0.797c-0.185,0.209-0.37,0.367-0.562,0.473c-0.188,0.105-0.345,0.17-0.461,0.195v0.062
		c0.116,0.013,0.272,0.062,0.461,0.154c0.191,0.094,0.377,0.24,0.562,0.441c0.184,0.205,0.345,0.473,0.481,0.797
		c0.138,0.328,0.207,0.744,0.207,1.242v3.578c0,0.197,0.012,0.396,0.04,0.602c0.025,0.203,0.074,0.387,0.146,0.551
		c0.072,0.164,0.168,0.295,0.284,0.394c0.119,0.099,0.277,0.147,0.473,0.147h0.983V50.3h-1.377c-0.249,0-0.498-0.057-0.747-0.166
		c-0.249-0.11-0.476-0.276-0.678-0.493c-0.205-0.218-0.37-0.483-0.503-0.806c-0.131-0.321-0.195-0.69-0.195-1.11v-3.562
		c0-0.354-0.047-0.676-0.138-0.963c-0.094-0.289-0.215-0.531-0.366-0.729c-0.148-0.195-0.323-0.347-0.519-0.451
		c-0.198-0.104-0.4-0.158-0.61-0.158v-1.336c0.21,0,0.412-0.058,0.61-0.168c0.195-0.11,0.37-0.269,0.519-0.474
		c0.151-0.202,0.272-0.446,0.366-0.735c0.091-0.289,0.138-0.604,0.138-0.944v-3.58c0-0.418,0.064-0.789,0.195-1.109
		c0.133-0.32,0.298-0.592,0.503-0.809c0.202-0.217,0.429-0.379,0.678-0.492c0.249-0.109,0.498-0.166,0.747-0.166h1.377v1.182h-0.983
		V33.227z"/>
	<path fill="#A3BDD3" d="M34.982,49.121c0.197,0,0.354-0.053,0.473-0.147c0.119-0.099,0.215-0.228,0.287-0.386
		c0.068-0.155,0.121-0.338,0.146-0.541c0.023-0.201,0.037-0.409,0.037-0.618V43.85c0-0.459,0.068-0.853,0.208-1.173
		c0.138-0.321,0.3-0.586,0.479-0.797c0.185-0.209,0.373-0.366,0.562-0.473c0.19-0.104,0.347-0.17,0.464-0.195v-0.061
		c-0.117-0.012-0.271-0.064-0.464-0.156c-0.188-0.094-0.378-0.24-0.562-0.44c-0.182-0.205-0.342-0.472-0.479-0.798
		c-0.14-0.327-0.208-0.741-0.208-1.241v-3.562c0-0.221-0.014-0.436-0.037-0.639c-0.025-0.201-0.078-0.387-0.146-0.551
		c-0.072-0.164-0.168-0.295-0.287-0.395c-0.118-0.099-0.273-0.146-0.473-0.146H34v-1.182h1.376c0.249,0,0.499,0.057,0.748,0.168
		s0.476,0.274,0.681,0.49c0.202,0.217,0.369,0.487,0.5,0.809c0.131,0.322,0.197,0.691,0.197,1.111v3.58
		c0,0.354,0.045,0.676,0.139,0.965c0.09,0.287,0.211,0.535,0.362,0.736c0.151,0.203,0.324,0.355,0.521,0.463
		c0.197,0.104,0.4,0.156,0.61,0.156v1.336c-0.21,0-0.413,0.059-0.61,0.168c-0.195,0.113-0.369,0.271-0.521,0.475
		s-0.272,0.445-0.362,0.729c-0.094,0.279-0.139,0.59-0.139,0.934v3.562c0,0.42-0.066,0.789-0.197,1.11
		c-0.131,0.32-0.298,0.588-0.5,0.806c-0.205,0.217-0.432,0.383-0.681,0.493c-0.249,0.109-0.499,0.166-0.748,0.166H34v-1.178H34.982z
		"/>
</g>
<circle fill="#A3BDD3" cx="19.5" cy="41.5" r="1.5"/>
<circle fill="#A3BDD3" cx="24.5" cy="41.5" r="1.5"/>
<circle fill="#A3BDD3" cx="29.5" cy="41.5" r="1.5"/>
</svg>
