<?xml version="1.0" encoding="utf-8"?>
<!-- Generator: Adobe Illustrator 17.0.0, SVG Export Plug-In . SVG Version: 6.00 Build 0)  -->
<!DOCTYPE svg PUBLIC "-//W3C//DTD SVG 1.1//EN" "http://www.w3.org/Graphics/SVG/1.1/DTD/svg11.dtd">
<svg version="1.1" id="DPS" xmlns="http://www.w3.org/2000/svg" xmlns:xlink="http://www.w3.org/1999/xlink" x="0px" y="0px"
	 width="240px" height="234px" viewBox="0 0 240 234" enable-background="new 0 0 240 234" xml:space="preserve">
<g>
	<rect x="-0.678" y="-0.009" fill-rule="evenodd" clip-rule="evenodd" fill="#571342" width="240.678" height="234.02"/>
	<path fill-rule="evenodd" clip-rule="evenodd" fill="#E295C1" d="M135.803,179.994v-72.494L80.384,88.456v72.494L135.803,179.994z
		 M144.29,191.371l-71.896-24.294V77.122l71.896,24.295V191.371z M145.928,86.09L71.412,62.604c-0.823-0.255-1.702-0.39-2.611-0.39
		c-4.908,0-8.887,3.954-8.887,8.837v97.169c0,7.194,4.334,12.807,12.342,15.104l72.824,23.486c0.829,0.254,3.396,0.389,4.304,0.389
		c4.908,0,8.887-3.954,8.887-8.832v-97.174C158.27,93.998,153.937,88.386,145.928,86.09z M81.328,57.915l70.118,21.509
		c8.582,3.415,14.812,11.049,14.812,19.207v82.106h12.482V57.915H81.328z M80.609,50.427h77.661V23.106L80.609,50.427z"/>
</g>
</svg>
