<?xml version="1.0" encoding="utf-8"?>
<!-- Generator: Adobe Illustrator 17.0.0, SVG Export Plug-In . SVG Version: 6.00 Build 0)  -->
<!DOCTYPE svg PUBLIC "-//W3C//DTD SVG 1.1//EN" "http://www.w3.org/Graphics/SVG/1.1/DTD/svg11.dtd">
<svg version="1.1" id="mnemonic" xmlns="http://www.w3.org/2000/svg" xmlns:xlink="http://www.w3.org/1999/xlink" x="0px" y="0px"
	 width="240px" height="234px" viewBox="0 0 240 234" enable-background="new 0 0 240 234" xml:space="preserve">
<g>
	<radialGradient id="SVGID_1_" cx="97.7109" cy="81.286" r="143.4317" gradientUnits="userSpaceOnUse">
		<stop  offset="0" style="stop-color:#091B2C;stop-opacity:0.85"/>
		<stop  offset="0.7669" style="stop-color:#091B2C"/>
	</radialGradient>
	<rect x="10" y="10" fill-rule="evenodd" clip-rule="evenodd" fill="url(#SVGID_1_)" width="220" height="213.999"/>
</g>
<g>
	<path fill-rule="evenodd" clip-rule="evenodd" fill="#70A4D8" d="M0,0v233.999h240.001V0H0z M10,10h220.001v213.999H10V10z"/>
</g>
<path fill-rule="evenodd" clip-rule="evenodd" fill="#70A4D8" d="M111.874,162.18c-0.165,0.99-0.495,1.32-1.485,1.32H53.822
	c-0.99,0-1.32-0.33-1.32-1.32V54.819c0-0.989,0.33-1.319,1.32-1.319h54.587c0.99,0,1.32,0.164,1.485,1.154l1.485,13.775
	c0.165,0.824-0.165,1.32-0.99,1.32H70.501v29.5h35.723c0.825,0,1.277,0.33,1.277,1.154v13.939c0,0.826-0.495,1.156-1.32,1.156
	h-35.68v31.75h42.405c0.99,0,1.277,0.33,1.112,1.154L111.874,162.18z M130.501,98.725c0-0.99,0-4.455-0.495-10.23
	c0-0.66,0.15-0.824,0.81-1.154c8.415-3.135,19.68-6.601,31.065-6.601c14.025,0,29.37,5.445,29.37,29.535v51.906
	c0,0.99-0.33,1.32-1.155,1.32h-15.524c-0.99,0-1.32-0.496-1.32-1.32v-50.586c0-9.569-3.765-14.85-13.665-14.85
	c-4.29,0-8.115,0.825-11.085,1.815v63.785c0,0.66-0.33,1.156-0.99,1.156h-15.855c-0.825,0-1.155-0.33-1.155-1.156V98.725z"/>
</svg>
