<?xml version="1.0" encoding="utf-8"?>
<!-- Generator: Adobe Illustrator 17.0.0, SVG Export Plug-In . SVG Version: 6.00 Build 0)  -->
<!DOCTYPE svg PUBLIC "-//W3C//DTD SVG 1.1//EN" "http://www.w3.org/Graphics/SVG/1.1/DTD/svg11.dtd">
<svg version="1.1" id="mnemonic" xmlns="http://www.w3.org/2000/svg" xmlns:xlink="http://www.w3.org/1999/xlink" x="0px" y="0px"
	 width="240px" height="234px" viewBox="0 0 240 234" enable-background="new 0 0 240 234" xml:space="preserve">
<g>
	<radialGradient id="SVGID_1_" cx="97.7109" cy="81.2863" r="143.4321" gradientUnits="userSpaceOnUse">
		<stop  offset="0" style="stop-color:#322500;stop-opacity:0.85"/>
		<stop  offset="0.7669" style="stop-color:#322500"/>
	</radialGradient>
	<rect x="10" y="10" fill-rule="evenodd" clip-rule="evenodd" fill="url(#SVGID_1_)" width="220" height="214"/>
</g>
<g>
	<path fill-rule="evenodd" clip-rule="evenodd" fill="#FFCB05" d="M0,0v233.999h240.001V0H0z M10,10h220.001v213.999H10V10z"/>
</g>
<path fill-rule="evenodd" clip-rule="evenodd" fill="#FFCB05" d="M58.25,161.975c0,0.99-0.33,1.525-1.155,1.525H41.406
	c-0.825,0-1.155-0.33-1.155-1.32V54.655c0-0.825,0.33-1.155,1.155-1.155h54.932c0.99,0,1.155,0.329,1.32,1.155l1.65,13.775
	c0.165,0.99-0.33,1.32-1.32,1.32H58.25V101h35.623c0.825,0,1.127,0.164,1.127,1.154v13.939c0,0.99-0.33,1.156-1.155,1.156H58.25
	V161.975z M169.401,163.5c-1.155,0-1.485-0.445-1.65-1.436c-4.95-27.555-9.075-47.035-10.89-60.564h-0.165
	c-2.146,12.209-6.105,32.514-12.705,60.73c-0.33,0.988-0.66,1.27-1.485,1.27h-16.17c-1.155,0-1.485-0.166-1.815-1.156L106.866,83.57
	c-0.165-0.66,0.165-1.32,1.155-1.32h16.169c0.66,0,1.155,0.229,1.32,0.89c6.271,35.475,8.91,53.851,9.9,61.111h0.66
	c1.154-8.58,4.619-26.461,12.045-60.781c0.33-0.99,0.33-1.22,1.319-1.22h16.995c0.825,0,0.99,0.4,1.155,1.225
	c5.775,32.504,9.57,53.026,10.561,61.276h0.494c1.65-10.561,3.795-24.811,10.891-61.441c0.165-0.66,0.33-1.06,1.154-1.06h15.181
	c0.66,0,1.155,0.329,0.825,1.155l-19.636,78.939c-0.165,0.826-0.33,1.156-1.484,1.156H169.401z"/>
</svg>
