<?xml version="1.0" encoding="utf-8"?>
<!-- Generator: Adobe Illustrator 17.0.0, SVG Export Plug-In . SVG Version: 6.00 Build 0)  -->
<!DOCTYPE svg PUBLIC "-//W3C//DTD SVG 1.1//EN" "http://www.w3.org/Graphics/SVG/1.1/DTD/svg11.dtd">
<svg version="1.1" id="mnemonic" xmlns="http://www.w3.org/2000/svg" xmlns:xlink="http://www.w3.org/1999/xlink" x="0px" y="0px"
	 width="240px" height="234px" viewBox="0 0 240 234" enable-background="new 0 0 240 234" xml:space="preserve">
<g>
	<radialGradient id="SVGID_1_" cx="97.7113" cy="81.286" r="143.432" gradientUnits="userSpaceOnUse">
		<stop  offset="0" style="stop-color:#370000;stop-opacity:0.85"/>
		<stop  offset="0.7669" style="stop-color:#290000"/>
	</radialGradient>
	<rect x="10" y="10" fill-rule="evenodd" clip-rule="evenodd" fill="url(#SVGID_1_)" width="220.001" height="213.999"/>
</g>
<g>
	<path fill-rule="evenodd" clip-rule="evenodd" fill="#EE3124" d="M0,0v233.999h240.001V0H0z M10,10h220.001v213.999H10V10z"/>
</g>
<path fill-rule="evenodd" clip-rule="evenodd" fill="#EE3124" d="M87.25,161.96c0,0.99-0.33,1.289-1.155,1.289H70.406
	c-0.825,0-1.155-0.33-1.155-1.32V54.405c0-0.825,0.33-1.155,1.155-1.155h54.825c0.99,0,1.155,0.33,1.32,1.155l1.65,13.775
	c0.165,0.99-0.33,1.32-1.32,1.32H87.25v31.25h35.73c0.828,0,1.02,0.165,1.02,1.155v13.94c0,0.99-0.33,1.154-1.155,1.154H87.25
	V161.96z M146.25,54.24c0-0.66,0.164-0.99,1.154-0.99h15.525c0.99,0,1.32,0.33,1.32,0.99v89.79c0,3.959,1.484,5.443,4.455,5.443
	c1.32,0,1.895-0.164,2.719-0.33c0.66,0,0.826,0.166,0.826,0.99v11.715c0,0.99-0.166,1.32-0.826,1.65
	c-2.145,0.826-5.209,1.156-8.674,1.156c-8.746,0-16.5-3.301-16.5-19.141V54.24z"/>
</svg>
