<?xml version="1.0" encoding="utf-8"?>
<!-- Generator: Adobe Illustrator 16.2.1, SVG Export Plug-In . SVG Version: 6.00 Build 0)  -->
<!DOCTYPE svg PUBLIC "-//W3C//DTD SVG 1.1//EN" "http://www.w3.org/Graphics/SVG/1.1/DTD/svg11.dtd">
<svg version="1.1" id="Layer_1" xmlns="http://www.w3.org/2000/svg" xmlns:xlink="http://www.w3.org/1999/xlink" x="0px" y="0px"
	 width="300px" height="300px" viewBox="0 0 300 300" enable-background="new 0 0 300 300" xml:space="preserve">
<defs>
	<filter id="f1" x="-40%" y="-40%" width="200%" height="300%">
		 <feOffset result="offOut" in="SourceAlpha" dx="0" dy="0" />
      <feGaussianBlur result="blurOut" in="offOut" stdDeviation="10" />
      <feBlend in="SourceGraphic" in2="blurOut" mode="normal" />
	</filter>
</defs>
<g>
	<defs>
		<rect id="SVGID_1_" x="75" y="104" width="150" height="91"/>
	</defs>
	<clipPath id="SVGID_2_">
		<use xlink:href="#SVGID_1_"  overflow="visible"/>
	</clipPath>
	
		<rect x="75" y="104" opacity="0" clip-path="url(#SVGID_2_)" fill-rule="evenodd" clip-rule="evenodd" fill="#FFFFFF" width="150" height="91"/>
</g>
<g>
	<path filter="url(#f1)" fill="#FFFFFF" d="M244,84H24c-0.552,0-1,0.452-1,1.009v134.232c0,0.558,0.448,0.759,1,0.759h98v5h-22c-0.552,0-1,0.447-1,1v2
		c0,0.553,0.448,1,1,1h71c0.553,0,1-0.447,1-1v-2c0-0.553-0.447-1-1-1h-19v-5h92c0.553,0,1-0.201,1-0.759V85.009
		C245,84.452,244.553,84,244,84z"/>
	<g>
		<path d="M230,205.729c0,0.444,0.016,1.271-0.463,1.271H38.867c-0.479,0-0.867-0.827-0.867-1.271V98.555
			C38,98.109,38.388,98,38.867,98h190.67c0.479,0,0.463,0.109,0.463,0.555V205.729z"/>
		<path fill="#FF0000" d="M200,129c0,0.552-0.447,1-1,1H59c-0.552,0-1-0.448-1-1v-17c0-0.552,0.448-1,1-1h140c0.553,0,1,0.448,1,1
			V129z"/>
		<path fill="#FFFFFF" d="M88,194c0,0.553-0.448,1-1,1H59c-0.552,0-1-0.447-1-1v-56c0-0.552,0.448-1,1-1h28c0.552,0,1,0.448,1,1V194
			z"/>
		<path fill="#FFFFFF" d="M200,194c0,0.553-1.874,1-3.877,1H94.625c-2.002,0-3.625-0.447-3.625-1v-56c0-0.552,1.623-1,3.625-1
			h101.498c2.003,0,3.877,0.448,3.877,1V194z"/>
	</g>
</g>
<g>
	<path filter="url(#f1)" fill="#FFFFFF" d="M277,144c0-0.552-0.554-1-1.113-1h-67.874c-0.56,0-1.013,0.448-1.013,1v94c0,0.553,0.453,1,1.013,1h67.874
		c0.56,0,1.113-0.447,1.113-1V144z"/>
	<path d="M268,154.25c0-0.551-0.451-1.25-1.01-1.25h-49.48c-0.559,0-1.51,0.699-1.51,1.25v67.736c0,0.551,0.951,1.014,1.51,1.014
		h49.48c0.559,0,1.01-0.463,1.01-1.014V154.25z"/>
	<path fill="#FFFFFF" d="M262,167c0-0.553-0.447-1-1-1h-15c-0.553,0-1,0.447-1,1v16c0,0.553,0.447,1,1,1h15c0.553,0,1-0.447,1-1V167
		z"/>
	<path fill="#FFFFFF" d="M262,192c0-0.553-0.447-1-1-1h-15c-0.553,0-1,0.447-1,1v16c0,0.553,0.447,1,1,1h15c0.553,0,1-0.447,1-1V192
		z"/>
	<path fill="#FF0000" d="M240,167c0-0.553-0.447-1-1-1h-15c-0.553,0-1,0.447-1,1v16c0,0.553,0.447,1,1,1h15c0.553,0,1-0.447,1-1V167
		z"/>
	<circle cx="241.75" cy="233.75" r="3.25"/>
	<path fill="#FFFFFF" d="M240,192c0-0.553-0.447-1-1-1h-15c-0.553,0-1,0.447-1,1v16c0,0.553,0.447,1,1,1h15c0.553,0,1-0.447,1-1V192
		z"/>
</g>
</svg>
