<?xml version="1.0" encoding="utf-8"?>
<!-- Generator: Adobe Illustrator 17.0.0, SVG Export Plug-In . SVG Version: 6.00 Build 0)  -->
<!DOCTYPE svg PUBLIC "-//W3C//DTD SVG 1.1 Basic//EN" "http://www.w3.org/Graphics/SVG/1.1/DTD/svg11-basic.dtd">
<svg version="1.1" baseProfile="basic" id="Layer_1"
	 xmlns="http://www.w3.org/2000/svg" xmlns:xlink="http://www.w3.org/1999/xlink" x="0px" y="0px" width="300px" height="300px"
	 viewBox="0 0 300 300" xml:space="preserve">
<defs>
	<filter id="f1" x="-40%" y="-40%" width="200%" height="300%">
		 <feOffset result="offOut" in="SourceAlpha" dx="0" dy="0" />
      <feGaussianBlur result="blurOut" in="offOut" stdDeviation="10" />
      <feBlend in="SourceGraphic" in2="blurOut" mode="normal" />
	</filter>
</defs>

<g>
	<circle filter="url(#f1)" fill="#FFFFFF" cx="78.105" cy="103.321" r="40.042"/>
	<path filter="url(#f1)" fill="#FFFFFF" d="M80,151.645v-0.012c0-0.003-0.677,0.005-1,0.006c-0.323-0.001,0-0.009-1-0.006v0.012
		c-51,0.804-50.658,54.231-50.658,54.231l12.139,58.997l39.64-0.048l39.628,0.048l12.046-58.997
		C130.795,205.876,131,152.449,80,151.645z"/>
	<path filter="url(#f1)" fill="#FFFFFF" d="M151,129.365v-0.012c-1-0.003-1.177,0.005-1.5,0.006c-0.323-0.001-0.5-0.009-1.5-0.006v0.012
		c-51,0.804-50.383,54.231-50.383,54.231l12.276,58.997l39.708-0.048l39.663,0.048l12.288-58.997
		C201.553,183.597,202,130.17,151,129.365z"/>
	<circle filter="url(#f1)" fill="#FFFFFF" cx="148.656" cy="81.042" r="40.042"/>
	<path filter="url(#f1)" fill="#FFFFFF" d="M227,151.645v-0.012c0-0.003-0.677,0.005-1,0.006c-0.323-0.001,0-0.009-1-0.006v0.012
		c-51,0.804-50.513,54.231-50.513,54.231l12.211,58.997l39.676-0.048l39.647,0.048l11.91-58.997
		C277.931,205.876,279,152.449,227,151.645z"/>
	<circle filter="url(#f1)" fill="#FFFFFF" cx="225.396" cy="104.559" r="40.042"/>
	<path filter="url(#f1)" fill="#FF0000" d="M233.586,177.77l-69.52-5.364l10.379,24.334l0.209,0.49l-1.717,0.756c0,0-64.981,30.943-76.121,33.625
		c-11.14,2.682-36.513,9.489-52.397,6.601c-15.884-2.888-20.04-11.401-21.151-13.422c-1.467-2.669,2.732-8.857,2.732-8.857v-12.79
		l0,0c0,0-14.359,10.314-13.947,27.643c0.413,17.328,31.01,25.786,31.01,25.786s16.059,9.283,79.596-8.664
		c40.055-11.314,55.318-21.233,62.29-26.607l9.662,22.687L233.586,177.77z"/>
</g>
</svg>
