<?xml version="1.0" encoding="utf-8"?>
<!-- Generator: Adobe Illustrator 16.2.1, SVG Export Plug-In . SVG Version: 6.00 Build 0)  -->
<!DOCTYPE svg PUBLIC "-//W3C//DTD SVG 1.1//EN" "http://www.w3.org/Graphics/SVG/1.1/DTD/svg11.dtd">
<svg version="1.1" id="Layer_1" xmlns="http://www.w3.org/2000/svg" xmlns:xlink="http://www.w3.org/1999/xlink" x="0px" y="0px"
	 width="300px" height="300px" viewBox="0 0 300 300" enable-background="new 0 0 300 300" xml:space="preserve">
<defs>
	<filter id="f1" x="-40%" y="-40%" width="200%" height="300%">
		 <feOffset result="offOut" in="SourceAlpha" dx="0" dy="0" />
      <feGaussianBlur result="blurOut" in="offOut" stdDeviation="10" />
      <feBlend in="SourceGraphic" in2="blurOut" mode="normal" />
	</filter>
	<filter id="f2" x="-40%" y="-40%" width="200%" height="300%">
		 <feOffset result="offOut" in="SourceAlpha" dx="0" dy="0" />
      <feGaussianBlur result="blurOut" in="offOut" stdDeviation="5" />
      <feBlend in="SourceGraphic" in2="blurOut" mode="normal" />
	</filter>
</defs>
<g>
	<!-- Handle -->
	<path filter="url(#f2)" fill="#FFFFFF" d="M164.5,102h-29.038c-1.083,0-2.462,1.062-2.462,2.167v13c0,1.104,1.378,1.833,2.462,1.833h30.409
	c1.083,0,1.129-0.729,1.129-1.833v-13C167,103.062,165.583,102,164.5,102z M162,114c0,1.104-0.896,2-2,2h-20c-1.104,0-2-0.896-2-2
	v-7c0-1.104,0.896-2,2-2h20c1.104,0,2,0.896,2,2V114z"/>
	<!-- Briefcase -->
	<path filter="url(#f2)"  fill="#FFFFFF" d="M211,115h-77.166H90c-2.209,0-4,1.791-4,4v77c0,2.209,1.791,4,4,4h121c2.209,0,4-1.791,4-4v-77
		C215,116.791,213.209,115,211,115z M129,159h14v3h-14V159z M119.865,185.342c-1.308,1.519-3.001,2.399-4.891,2.922
		c-1.561,0.432-3.234,0.61-4.859,0.604c-4.74-0.018-15.115,0.007-15.115,0.007v-0.794l0.077-30.397l0.035-0.777
		c0,0,11.044-0.023,16.169,0.044c2.075,0.027,4.133,0.379,5.963,1.497c1.571,0.961,2.518,2.353,2.911,4.142
		c0.436,1.986,0.366,3.915-0.579,5.766c-0.618,1.211-1.597,2.037-2.742,2.704c-0.186,0.108-0.374,0.211-0.71,0.399
		c1.266,0.446,2.339,0.94,3.215,1.749c1.606,1.485,2.355,3.398,2.519,5.528C122.045,181.177,121.508,183.434,119.865,185.342z
		 M146.453,178.934c-2.564-0.027-5.129,0.066-7.693,0.066c-2.565,0-8.338,0-8.338,0s-0.037-0.117,0.028,0.377
		c0.182,1.375,0.468,2.679,1.417,3.765c0.878,1.005,2.06,1.42,3.336,1.516c2.44,0.185,4.566-0.406,5.839-2.749
		c0.124-0.226,0.087-0.286,0.087-0.286l5.559-0.006c0,0,0,0.101-0.119,0.463c-1.224,3.733-3.646,6.211-7.539,7.053
		c-2.688,0.581-5.364,0.472-7.964-0.54c-2.942-1.146-4.951-3.238-6.061-6.153c-1.416-3.715-1.348-7.462,0.409-11.022
		c1.799-3.646,4.837-5.707,8.912-6.231c2.843-0.366,5.504,0.079,7.864,1.722c2.608,1.815,4.02,4.437,4.652,7.506
		c0.256,1.233,0.312,2.521,0.307,3.779C147.146,178.725,147.004,178.939,146.453,178.934z"/>
	<!-- B top- Hole -->
	<path filter="url(#f2)"  fill="#FFFFFF" d="M102.585,169.85c0,0,2.415-0.008,3.415-0.008c0-0.001,0-0.003,0-0.006c1,0,2.552,0.009,3.76-0.006
		c0.261-0.003,0.588-0.087,0.848-0.135c1.627-0.298,2.831-1.558,2.953-3.144c0.157-2.024-0.598-3.243-2.376-3.871
		c-0.741-0.262-1.566-0.34-2.325-0.358c-2.052-0.05-6.86-0.025-6.86-0.025v0.598l-0.001,6.957L102.585,169.85z"/>
	<!-- B bottom- Hole -->
	<path filter="url(#f2)"  fill="#FFFFFF" d="M110.615,174.672c-2.626-0.163-8.479-0.045-8.479-0.045l-0.003,0.593l-0.002,7.546l0.111,0.596
		c0,0,2.759-0.008,4.759-0.008c0-0.003,0-0.005,0-0.007c1,0,2.5,0.062,3.802-0.015c1.896-0.109,3.813-0.935,4.08-3.435
		C115.214,176.784,113.811,174.872,110.615,174.672z"/>
	<!-- E -Hole -->
	<path filter="url(#f2)"  fill="#FFFFFF" d="M136.702,169.939c-2.871-0.458-5.735,1.076-6.17,4.288c-0.073,0.536-0.073,0.563-0.073,0.563
		s3.563-0.004,5.062-0.004c1.547,0,5.277,0.006,5.277,0.006s0.036-0.087-0.076-0.565
		C140.225,172.089,139.396,170.369,136.702,169.939z"/>
</g>
<!-- Red box -->
<rect filter="url(#f2)"  x="182" y="115" fill="#FF0000" width="11" height="85"/>
<!-- <path filter="url(#f2)"  fill="#FFFFFF" d="M132.5,114"/> -->
</svg>
