<?xml version="1.0" encoding="utf-8"?>
<!-- Generator: Adobe Illustrator 16.2.1, SVG Export Plug-In . SVG Version: 6.00 Build 0)  -->
<!DOCTYPE svg PUBLIC "-//W3C//DTD SVG 1.1//EN" "http://www.w3.org/Graphics/SVG/1.1/DTD/svg11.dtd">
<svg version="1.1" id="Layer_1" xmlns="http://www.w3.org/2000/svg" xmlns:xlink="http://www.w3.org/1999/xlink" x="0px" y="0px"
	 width="300px" height="300px" viewBox="0 0 300 300" enable-background="new 0 0 300 300" xml:space="preserve">
<defs>
	<filter id="f1" x="-40%" y="-40%" width="200%" height="300%">
		 <feOffset result="offOut" in="SourceAlpha" dx="0" dy="0" />
      <feGaussianBlur result="blurOut" in="offOut" stdDeviation="10" />
      <feBlend in="SourceGraphic" in2="blurOut" mode="normal" />
	</filter>
	<filter id="f2" x="-40%" y="-40%" width="200%" height="300%">
		 <feOffset result="offOut" in="SourceAlpha" dx="0" dy="0" />
      <feGaussianBlur result="blurOut" in="offOut" stdDeviation="5" />
      <feBlend in="SourceGraphic" in2="blurOut" mode="normal" />
	</filter>
</defs>	
<!-- Cloud  -->
<path filter="url(#f1)"  fill="#FFFFFF" d="M232.379,62.675c-4.863-22.26-29.385-37.902-53.103-37.902c-12.869,0-24.947-0.15-33.756,7.896
	c-8.428-6.635-18.644-5.526-30.203-5.526c-22.563,0-44.747,12.53-50.732,33.164C40.099,67.517,25.5,91.662,25.5,117.16
	c0,31.397,26.957,56.851,60.207,56.851c6.75,0,13.232-1.064,19.291-2.998c9.75,11.669,24.978,19.185,42.1,19.185
	c18.865,0,35.933-4.417,45.405-18.159c8.59,7.64,18.873,7.499,30.597,7.499c28.021,0,50.733-25.986,50.733-58.035
	C273.833,91.206,258.262,65.312,232.379,62.675z"/>
<!-- globe -->
<path filter="url(#f2)"  fill="none" stroke="#FFFFFF" stroke-width="3" stroke-miterlimit="10" d="M206.941,181.274c0,47.241-38.3,85.54-85.539,85.54
	c-47.24,0-85.538-38.299-85.538-85.54c0-47.241,38.298-85.537,85.538-85.537C168.642,95.737,206.941,134.034,206.941,181.274z
	 M122.5,96.632v170.557C122.5,267.189,122.5,267.189,122.5,96.632z M61,120.5h121 M42,149.5h159 M35,178.5h173 M39,207.5h162
	 M54,234.5h135 M109.087,96.632 M109.087,96.632 M109.087,265.655c-25.776-89.181,0-169.023,0-169.023 M89.649,101.842
	c0,0-45.608,74.23,0,158.874 M75.219,109.268c0,0-57.275,68.109,0,144.006 M135.042,265.655c25.778-89.181,0-169.023,0-169.023
	 M152.113,260.716c45.606-84.644,0-158.874,0-158.874 M168.912,252.09c57.273-74.646,0-141.633,0-141.633"/>
<!-- Arrow -->
<path filter="url(#f2)"  fill="#FF0000" d="M196.494,176.718l-54.914-4.236l8.198,19.222l0.167,0.386l-1.358,0.6c0,0-51.328,24.442-60.128,26.559
	c-8.798,2.12-28.841,7.498-41.387,5.215c-12.549-2.281-15.831-9.006-16.708-10.6c-1.16-2.109,6.961-11.025,6.961-11.025
	l-1.381-7.007c0,0-14.765,9.078-14.438,22.768c0.325,13.685,24.493,20.366,24.493,20.366s12.686,7.331,62.873-6.843
	c31.639-8.937,43.696-16.773,49.202-21.016l7.634,17.921L196.494,176.718z"/>
</svg>
