<?xml version="1.0" encoding="utf-8"?>
<!-- Generator: Adobe Illustrator 16.2.1, SVG Export Plug-In . SVG Version: 6.00 Build 0)  -->
<!DOCTYPE svg PUBLIC "-//W3C//DTD SVG 1.1//EN" "http://www.w3.org/Graphics/SVG/1.1/DTD/svg11.dtd">
<svg version="1.1" id="Layer_1" xmlns="http://www.w3.org/2000/svg" xmlns:xlink="http://www.w3.org/1999/xlink" x="0px" y="0px"
	 width="300px" height="300px" viewBox="0 0 300 300" enable-background="new 0 0 300 300" xml:space="preserve">
<defs>
	<filter id="f1" x="-40%" y="-40%" width="200%" height="300%">
		 <feOffset result="offOut" in="SourceAlpha" dx="0" dy="0" />
      <feGaussianBlur result="blurOut" in="offOut" stdDeviation="10" />
      <feBlend in="SourceGraphic" in2="blurOut" mode="normal" />
	</filter>
</defs>
<g>
	<path filter="url(#f1)"   fill-rule="evenodd" clip-rule="evenodd" fill="#FFFFFF" d="M268.76,195.721c-14.781,18.761-34.024,30.394-57.186,35.626
		c-6.027,1.362-12.194,2.258-18.41,2.265c-34.257,0.034-68.518,0.256-102.774-0.072c-19.378-0.185-36.757-6.871-51.991-18.836
		c-17.071-13.405-27.275-31.177-30.254-52.438c-3.608-25.764,3.405-48.864,20.223-68.981C42.62,76.238,60.706,65.916,82.302,61.612
		c8.253-1.645,16.644-2.423,25.067-0.849c2.7,0.505,4.937,0.073,7.319-1.899c16.215-13.428,34.891-21.042,55.792-23.847
		c15.598-2.092,30.634,0.277,45.499,4.264c8.397,2.252,16.033,6.689,23.824,10.541c4.5,2.224,26.166,22.205,28.85,25.936
		c10.254,14.253,17.294,29.709,19.616,47.339c2.801,21.259-0.708,41.188-10.888,59.99c-1.18,2.183-6.986,11.866-9.183,13.334
		 M188.039,209.784c22.984-0.338,42.698-8.364,58.614-25.149c18.308-19.305,24.282-42.519,18.691-67.966
		c-5.964-27.15-23.1-46.097-48.444-57.238c-18.035-7.929-36.812-9.098-55.842-3.775c-7.735,2.163-15,5.522-21.748,9.909
		c-1.612,1.048-3.749,2.319-0.714,4.167c10.753,6.553,10.768,6.531,23.006,1.092c0.404-0.18,0.781-0.434,1.199-0.57
		c27.415-8.938,57.13,0.113,74.987,22.831c19.085,24.279,17.286,59.246-4.686,80.986c-10.899,10.784-24.041,16.976-39.822,18.021
		c-16.174,1.071-30.721-2.48-44.121-11.358c-7.199-4.77-13.046-11.119-19.295-16.94c-9.977-9.294-19.363-19.22-29.016-28.862
		c-4.45-4.443-8.641-4.774-12.315-1.038c-3.559,3.618-3.28,8.229,0.859,12.554c3.588,3.749,7.133,7.555,10.917,11.1
		c12.294,11.516,22.407,25.203,36.403,35.072C152.213,203.549,168.891,210.059,188.039,209.784z M122.494,210.087
		c-6.017-4.101-10.322-8.365-14.337-12.858c-3.114-3.485-6.47-4.859-11.216-4.712c-9.205,0.285-18.187-1.349-26.228-6.209
		c-7.588-4.585-14.274-9.739-18.772-18.058c-10.177-18.821-6.725-44.949,11.598-60.908c8.6-7.491,18.75-11.575,30.203-12.531
		c17.181-1.435,31.127,5.271,43.247,16.747c7.641,7.235,15.157,14.604,22.835,21.8c4.076,3.821,8.521,3.368,12.854-0.996
		c2.672-2.689,2.144-6.278-1.747-10.055c-7.757-7.533-15.651-14.925-23.398-22.465c-7.648-7.442-16.484-13.022-26.5-16.536
		c-31.14-10.922-62.598,1.742-80.501,27.258C25.89,131.433,26.73,163.09,42.664,183.13c14.032,17.649,31.005,26.771,53.287,26.464
		C104.348,209.478,112.71,211.128,122.494,210.087z"/>
	<path fill-rule="evenodd" clip-rule="evenodd" fill="#9F9F9F" d="M188.039,209.784c-19.148,0.274-35.826-6.235-51.327-17.164
		c-13.996-9.869-24.108-23.557-36.403-35.072c-3.784-3.545-7.329-7.351-10.917-11.1c-4.139-4.325-4.417-8.936-0.859-12.554
		c3.675-3.737,7.866-3.405,12.315,1.038c9.653,9.642,19.039,19.568,29.016,28.862c6.25,5.821,12.096,12.171,19.295,16.94
		c13.4,8.878,27.947,12.43,44.121,11.358c15.781-1.046,28.923-7.237,39.822-18.021c21.972-21.74,23.771-56.707,4.686-80.986
		c-17.857-22.718-47.572-31.769-74.987-22.831c-0.418,0.136-0.795,0.39-1.199,0.57c-12.239,5.439-12.253,5.461-23.006-1.092
		c-3.034-1.848-0.898-3.119,0.714-4.167c6.749-4.387,14.013-7.746,21.748-9.909c19.03-5.323,37.807-4.154,55.842,3.775
		c25.345,11.142,42.48,30.088,48.444,57.238c5.591,25.447-0.384,48.661-18.691,67.966
		C230.737,201.42,211.023,209.446,188.039,209.784z"/>
	<path fill-rule="evenodd" clip-rule="evenodd" fill="#9F9F9F" d="M122.494,210.087c-9.784,1.041-18.146-0.609-26.543-0.493
		c-22.282,0.307-39.255-8.814-53.287-26.464c-15.934-20.04-16.774-51.697-2.132-72.566c17.903-25.516,49.361-38.18,80.501-27.258
		c10.016,3.513,18.852,9.094,26.5,16.536c7.747,7.541,15.642,14.932,23.398,22.465c3.891,3.777,4.419,7.366,1.747,10.055
		c-4.334,4.363-8.778,4.816-12.854,0.996c-7.678-7.196-15.194-14.564-22.835-21.8c-12.12-11.476-26.066-18.181-43.247-16.747
		c-11.453,0.956-21.603,5.04-30.203,12.531c-18.322,15.959-21.774,42.087-11.598,60.908c4.498,8.318,11.184,13.473,18.772,18.058
		c8.041,4.86,17.022,6.494,26.228,6.209c4.747-0.147,8.103,1.227,11.216,4.712C112.172,201.722,116.477,205.986,122.494,210.087z"/>
</g>
</svg>
