<?xml version="1.0" encoding="utf-8"?>
<!-- Generator: Adobe Illustrator 17.0.0, SVG Export Plug-In . SVG Version: 6.00 Build 0)  -->
<!DOCTYPE svg PUBLIC "-//W3C//DTD SVG 1.1 Basic//EN" "http://www.w3.org/Graphics/SVG/1.1/DTD/svg11-basic.dtd">
<svg version="1.1" baseProfile="basic" id="Layer_1"
	 xmlns="http://www.w3.org/2000/svg" xmlns:xlink="http://www.w3.org/1999/xlink" x="0px" y="0px" width="300px" height="240px"
	 viewBox="0 0 300 240" xml:space="preserve">

<defs>
	<filter id="f1" x="0" y="0" width="200%" height="200%">
		 <feOffset result="offOut" in="SourceAlpha" dx="0" dy="0" />
      <feGaussianBlur result="blurOut" in="offOut" stdDeviation="10" />
      <feBlend in="SourceGraphic" in2="blurOut" mode="normal" />
	</filter>
</defs>
<g>
	
	<g>
		<path filter="url(#f1)" fill="#FFFFFF" d="M161,31H65c-3.314,0-6,2.686-6,6v185c0,3.314,2.686,6,6,6h134c3.314,0,6-2.686,6-6V78L161,31z"/>
		<g>
			
			<g>
				<path filter="url(#f1)"  fill="#FF0000" d="M205,78h-41.313C160.373,78,161,34.314,161,31L205,78z"/>
			</g>
		</g>
	</g>
</g>
<g>
	
	<g>
		<path filter="url(#f1)"  fill="#FFFFFF" d="M252.397,133.098c7.04-20.562,2.649-22.842-4.793-16.984l-17.248,16.658L211,129.5l-6-22.658
			l15.788-16.026c5.092-5.095,6.593-14.018-16.711-6.039c-7.802,2.671-15.934,5.026-22.163,11.255
			c-11.561,11.561-16.167,29.17-10.713,43.803L87.727,224.23c-2.343,2.343-2.343,6.142,0,8.485l8.45,8.45l0.036,0.036l8.167,8.167
			c2.343,2.343,6.152,2.353,8.495,0.01l84.406-83.463c14.633,5.454,32.261,0.868,43.823-10.693
			C247.331,148.992,249.726,140.9,252.397,133.098z"/>
	</g>
</g>
<g>
	
	<g>
		<path filter="url(#f1)"  fill="#FCFCFC" d="M137,179.792l7.228-0.616c-0.284-3.802-0.95-7.493-1.976-11.036l-6.72,2.135l-3.397-8.207l6.42-3.325
			c-1.701-3.356-3.737-6.512-6.069-9.422l-5.372,4.527l-6.281-6.281l4.639-5.505c-2.829-2.433-5.905-4.586-9.196-6.402l-3.23,6.235
			l-8.207-3.4l2.179-6.862c-3.774-1.24-7.727-1.699-11.815-2.084L94.598,137h-8.883l-0.605-7.469
			c-3.79,0.341-7.47,0.873-10.996,1.952l2.151,6.677l-8.207,3.352l-3.275-6.347c-3.328,1.749-6.458,3.811-9.334,6.185l4.578,5.427
			l-6.281,6.278l-5.45-4.594c-2.391,2.863-4.491,5.976-6.26,9.294l6.321,3.274l-3.4,8.207l-6.826-2.168
			c-1.207,3.868-1.994,7.925-2.307,12.11L43,179.792v8.883l-7.011,0.6c0.415,3.785,1.23,7.45,2.381,10.96l6.918-2.196l3.401,8.207
			l-6.286,3.256c1.817,3.295,3.972,6.375,6.408,9.208l5.552-4.678l6.282,6.281l-4.565,5.418c2.914,2.335,6.074,4.373,9.435,6.075
			l3.351-6.47l8.207,3.4l-2.151,6.774c3.277,0.947,6.679,1.981,10.179,2.296L85.715,231h8.883l0.613,6.791
			c3.797-0.358,7.482-1.29,11.011-2.389l-2.192-6.999l8.207-3.447l3.314,6.374c3.325-1.77,6.444-3.884,9.313-6.279l-4.65-5.525
			l6.281-6.284l5.502,4.635c2.378-2.881,4.454-6.019,6.204-9.353l-6.399-3.315l3.399-8.207l6.848,2.175
			c0.972-3.185,1.64-6.494,2.014-9.898L137,188.675V179.792z M89.782,208.734c-13.945,0-25.25-11.305-25.25-25.25
			s11.305-25.25,25.25-25.25s25.25,11.305,25.25,25.25S103.727,208.734,89.782,208.734z"/>
	</g>
</g>
</svg>
