<?xml version="1.0" encoding="utf-8"?>
<!-- Generator: Adobe Illustrator 16.2.1, SVG Export Plug-In . SVG Version: 6.00 Build 0)  -->
<!DOCTYPE svg PUBLIC "-//W3C//DTD SVG 1.1//EN" "http://www.w3.org/Graphics/SVG/1.1/DTD/svg11.dtd">
<svg version="1.1" id="mnemonic" xmlns="http://www.w3.org/2000/svg" xmlns:xlink="http://www.w3.org/1999/xlink" x="0px" y="0px"
	 width="240px" height="234px" viewBox="0 0 240 234" enable-background="new 0 0 240 234" xml:space="preserve">
<g id="tile">
	<radialGradient id="SVGID_1_" cx="-145.7158" cy="-309.835" r="1013.1163" gradientUnits="userSpaceOnUse">
		<stop  offset="0" style="stop-color:#741517"/>
		<stop  offset="0.9939" style="stop-color:#590B0C"/>
	</radialGradient>
	<rect fill-rule="evenodd" clip-rule="evenodd" fill="url(#SVGID_1_)" width="240" height="234"/>
</g>
<radialGradient id="icon_2_" cx="81.5952" cy="48.5801" r="394.8052" gradientUnits="userSpaceOnUse">
	<stop  offset="0" style="stop-color:#FEE0CB"/>
	<stop  offset="0.46" style="stop-color:#FDCB9E"/>
</radialGradient>
<path id="icon_1_" fill-rule="evenodd" clip-rule="evenodd" fill="url(#icon_2_)" d="M130.811,98.265L115.13,90.67l5.78-10.295
	c0.3-0.055,0.604-0.12,0.91-0.21c3.965-1.2,6.204-5.385,5.005-9.35c-1.2-3.965-5.386-6.205-9.35-5.005
	c-3.965,1.2-6.205,5.385-5.005,9.35c0.115,0.38,0.266,0.74,0.43,1.09l-7.955,14.18c-0.605,1.08-0.74,2.365-0.37,3.55
	c0.375,1.185,1.215,2.16,2.33,2.7l16.01,7.766l-4.875,10.62c-0.29,0.05-0.58,0.115-0.87,0.2c-3.965,1.2-6.205,5.385-5.005,9.355
	c1.2,3.96,5.385,6.205,9.35,5.005c3.966-1.2,6.21-5.385,5.005-9.35c-0.12-0.4-0.274-0.77-0.449-1.13l6.865-14.95
	C133.96,101.97,133.015,99.335,130.811,98.265z M92.735,150.135c-0.73-3.3-3.065-7.909-5.995-11.745
	c-0.76-0.989-1.805-2.26-3.01-3.729C75.785,125,63.78,110.4,63.78,93.885c0-14.955,5.83-28.995,16.415-39.53
	c10.56-10.51,24.609-16.3,39.56-16.3c16.73,0,31.715,6.79,42.195,19.11c8.774,10.315,13.805,23.7,13.805,36.72
	c0,17.71-12.89,32.95-20.59,42.055c-0.726,0.855-1.41,1.666-2.035,2.421c-3.66,4.42-6.305,8.825-7.86,13.14
	c0,0-1.395,3.895-1.395,11h13.49c0-2.325,0.045-4.575,0.604-6.42c0.565-1.84,2.9-5.895,5.561-9.115
	c0.595-0.715,1.245-1.484,1.935-2.3c8.32-9.835,23.79-28.13,23.79-50.78c0-16.175-6.205-32.745-17.02-45.465
	c-13.091-15.39-31.726-23.865-52.48-23.865c-18.545,0-35.975,7.186-49.08,20.23C57.52,57.875,50.28,75.31,50.28,93.885
	c0,21.351,14.41,38.875,23.02,49.346c1.14,1.39,2.105,2.564,2.715,3.359c1.855,2.425,3.016,4.44,3.625,6.985
	c0.61,2.54,0.42,8.925,0.42,8.925h13.29C93.35,160.2,93.46,153.436,92.735,150.135z M88.515,194.5c0,2.82,2.29,6,5.11,6h12.315
	c0.785,3.665,5.99,6.535,13.375,6.535c7.39,0,12.25-2.74,13.375-6.535h12.315c2.825,0,5.11-3.18,5.11-6H88.515z M159.15,178.605
	c0-3.73-3.025-6.605-6.75-6.605H84.495c-3.725,0-6.75,2.875-6.75,6.605c0,3.729,3.025,6.895,6.75,6.895H152.4
	C156.125,185.5,159.15,182.335,159.15,178.605z M162.255,93.885c0,14.17-12.95,27.925-19.524,35.865
	c-3.905,4.72-7.735,10.48-10.16,17.2c-1.455,3.76-5.985,6.39-13.375,6.39c-7.385,0-12.311-2.795-13.375-6.39l-0.07-0.225
	c-1.72-6.536-4.75-11.911-8.285-16.536c-5.604-7.324-20.185-22.385-20.185-36.305c0-23.46,19.015-42.33,42.475-42.33
	C148.189,51.555,162.255,75.735,162.255,93.885z"/>
</svg>
