<?xml version="1.0" encoding="utf-8"?>
<!-- Generator: Adobe Illustrator 17.0.0, SVG Export Plug-In . SVG Version: 6.00 Build 0)  -->
<!DOCTYPE svg PUBLIC "-//W3C//DTD SVG 1.1//EN" "http://www.w3.org/Graphics/SVG/1.1/DTD/svg11.dtd">
<svg version="1.1" id="mnemonic" xmlns="http://www.w3.org/2000/svg" xmlns:xlink="http://www.w3.org/1999/xlink" x="0px" y="0px"
	 width="240px" height="234px" viewBox="0 0 240 234" enable-background="new 0 0 240 234" xml:space="preserve">
<g>
	<radialGradient id="SVGID_1_" cx="97.7109" cy="81.286" r="143.4317" gradientUnits="userSpaceOnUse">
		<stop  offset="0" style="stop-color:#320600;stop-opacity:0.85"/>
		<stop  offset="0.7669" style="stop-color:#320600"/>
	</radialGradient>
	<rect x="10" y="10" fill-rule="evenodd" clip-rule="evenodd" fill="url(#SVGID_1_)" width="220" height="213.999"/>
</g>
<g>
	<path fill-rule="evenodd" clip-rule="evenodd" fill="#F37021" d="M0,0v233.999h240.001V0H0z M10,10h220.001v213.999H10V10z"/>
</g>
<path fill-rule="evenodd" clip-rule="evenodd" fill="#F37021" d="M83.253,132.5l-7.92,29.982c-0.165,0.824-0.495,1.018-1.485,1.018
	H59.161c-0.988,0-1.152-0.33-0.988-1.485l28.38-99.448c0.495-1.815,0.825-3.377,0.99-8.328c0-0.66,0.33-0.99,0.825-0.99h20.955
	c0.66,0,0.99,0.165,1.155,0.99l31.845,107.94c0.165,0.824,0,1.32-0.825,1.32h-16.5c-0.824,0-1.319-0.193-1.484-0.854l-8.25-30.146
	H83.253z M111.138,116.25c-2.805-11.056-9.405-35.286-11.88-47h-0.165c-2.146,11.715-7.425,31.49-11.55,47H111.138z M156.13,60.672
	c0-6.435,4.455-10.23,10.23-10.23c6.105,0,10.23,4.125,10.23,10.23c0,6.6-4.29,10.23-10.395,10.23
	C160.255,70.902,156.13,67.272,156.13,60.672z M157.25,83.405c0-0.825,0.33-1.155,1.155-1.155h15.689
	c0.825,0,1.155,0.33,1.155,1.155v78.939c0,0.826-0.165,1.156-1.155,1.156h-15.524c-0.99,0-1.32-0.496-1.32-1.32V83.405z"/>
</svg>
