<?xml version="1.0" encoding="utf-8"?>
<!-- Generator: Adobe Illustrator 17.0.0, SVG Export Plug-In . SVG Version: 6.00 Build 0)  -->
<!DOCTYPE svg PUBLIC "-//W3C//DTD SVG 1.1//EN" "http://www.w3.org/Graphics/SVG/1.1/DTD/svg11.dtd">
<svg version="1.1" id="mnemonic" xmlns="http://www.w3.org/2000/svg" xmlns:xlink="http://www.w3.org/1999/xlink" x="0px" y="0px"
	 width="240px" height="234px" viewBox="0 0 240 234" enable-background="new 0 0 240 234" xml:space="preserve">
<g>
	<radialGradient id="SVGID_1_" cx="97.7109" cy="81.2863" r="143.4321" gradientUnits="userSpaceOnUse">
		<stop  offset="0" style="stop-color:#290017;stop-opacity:0.85"/>
		<stop  offset="0.7669" style="stop-color:#290017"/>
	</radialGradient>
	<rect x="10" y="10" fill-rule="evenodd" clip-rule="evenodd" fill="url(#SVGID_1_)" width="220" height="214"/>
</g>
<g>
	<path fill-rule="evenodd" clip-rule="evenodd" fill="#C63D96" d="M0,0v233.999h240.001V0H0z M10,10h220.001v213.999H10V10z"/>
</g>
<path fill-rule="evenodd" clip-rule="evenodd" fill="#C63D96" d="M95.5,162.18c0,0.99-0.165,1.32-1.32,1.32H78.82
	c-0.99,0-1.32-0.496-1.32-1.32V54.82c0-0.99,0.495-1.32,1.32-1.32h15.525c0.825,0,1.155,0.33,1.155,1.155V162.18z M169.25,161.424
	c0,0.66-0.165,0.99-0.825,1.32c-4.29,1.65-9.547,2.146-14.992,2.146c-23.431,0-37.125-17.326-37.125-41.91
	c0-24.09,15.51-42.241,39.269-42.241c6.436,0,10.396,0.494,12.87,1.484c0.66,0.496,0.825,0.826,0.825,1.65l-0.165,13.695
	c0,0.824-0.495,0.99-1.155,0.824c-2.805-1.154-6.435-1.815-11.385-1.815c-13.035,0-21.944,9.074-21.944,25.575
	c0,19.471,11.22,26.236,22.274,26.236c4.785,0,8.723-0.496,11.197-1.486c0.825-0.164,1.155,0.166,1.155,0.826V161.424z"/>
</svg>
