<?xml version="1.0" encoding="utf-8"?>
<!-- Generator: Adobe Illustrator 17.0.0, SVG Export Plug-In . SVG Version: 6.00 Build 0)  -->
<!DOCTYPE svg PUBLIC "-//W3C//DTD SVG 1.1//EN" "http://www.w3.org/Graphics/SVG/1.1/DTD/svg11.dtd">
<svg version="1.1" id="mnemonic" xmlns="http://www.w3.org/2000/svg" xmlns:xlink="http://www.w3.org/1999/xlink" x="0px" y="0px"
	 width="240px" height="234px" viewBox="0 0 240 234" enable-background="new 0 0 240 234" xml:space="preserve">
<g>
	<radialGradient id="SVGID_1_" cx="97.833" cy="81.2857" r="143.4319" gradientUnits="userSpaceOnUse">
		<stop  offset="0" style="stop-color:#29000E;stop-opacity:0.85"/>
		<stop  offset="0.7669" style="stop-color:#29000E"/>
	</radialGradient>
	<rect x="10.122" y="9.999" fill-rule="evenodd" clip-rule="evenodd" fill="url(#SVGID_1_)" width="220" height="214"/>
</g>
<g>
	<path fill-rule="evenodd" clip-rule="evenodd" fill="#EE3D8F" d="M0,0v233.999h240.001V0H0z M10,10h220.001v213.999H10V10z"/>
</g>
<path fill-rule="evenodd" clip-rule="evenodd" fill="#EE3D8F" d="M87.75,162.181c0,0.988-0.165,1.318-1.32,1.318H71.07
	c-0.99,0-1.32-0.494-1.32-1.318V54.82c0-0.99,0.495-1.32,1.32-1.32h15.525c0.825,0,1.155,0.33,1.155,1.155V162.181z M105.44,123.453
	c0-23.925,15.785-42.57,41.029-42.57c2.146,0,3.301,0,5.281,0.164V54.49c0-0.66,0.494-0.99,0.99-0.99h16.27
	c0.824,0,0.99,0.33,0.99,0.825v93.547c0,2.805,0,6.27,0.494,10.064c0,0.66-0.209,0.826-0.869,1.156
	c-8.58,4.125-17.656,5.939-26.235,5.939C121.281,165.033,105.44,151.337,105.44,123.453z M151.75,97.218
	c-1.484-0.66-3.465-0.99-5.939-0.99c-12.871,0-21.891,9.9-21.891,26.401c0,18.809,9.185,26.398,20.734,26.398
	c2.475,0,5.115-0.33,7.096-1.154V97.218z"/>
</svg>
