<?xml version="1.0" encoding="utf-8"?>
<!-- Generator: Adobe Illustrator 17.0.0, SVG Export Plug-In . SVG Version: 6.00 Build 0)  -->
<!DOCTYPE svg PUBLIC "-//W3C//DTD SVG 1.1//EN" "http://www.w3.org/Graphics/SVG/1.1/DTD/svg11.dtd">
<svg version="1.1" id="mnemonic" xmlns="http://www.w3.org/2000/svg" xmlns:xlink="http://www.w3.org/1999/xlink" x="0px" y="0px"
	 width="240px" height="234px" viewBox="0 0 240 234" enable-background="new 0 0 240 234" xml:space="preserve">
<g>
	<radialGradient id="SVGID_1_" cx="97.7109" cy="81.287" r="143.4328" gradientUnits="userSpaceOnUse">
		<stop  offset="0" style="stop-color:#10192B;stop-opacity:0.85"/>
		<stop  offset="0.7669" style="stop-color:#10192B"/>
	</radialGradient>
	<rect x="10" y="10" fill-rule="evenodd" clip-rule="evenodd" fill="url(#SVGID_1_)" width="220" height="214.002"/>
</g>
<g>
	<path fill-rule="evenodd" clip-rule="evenodd" fill="#80A0D3" d="M0,0v233.999h240.001V0H0z M10,10h220.001v213.999H10V10z"/>
</g>
<path fill="#80A0D3" d="M91,44.5H76.5V59H91V44.5z M163.5,59H149v14.5h14.5V59z M134.5,59H120v14.5h14.5V59z M105.5,73.5V59H91v14.5
	H105.5z M120,88V73.5h-14.5V88H120z M178,88v14.5h14.5V88H178z M163.5,88H149v14.5h14.5V88z M134.5,102.5V88H120v14.5H134.5z
	 M149,116.999V102.5h-14.5v14.499H149z M178,131.499h14.5v-14.5H178V131.499z M163.5,131.499v-14.5H149v14.5H163.5z M163.5,145.999
	H178v-14.5h-14.5V145.999z M192.5,160.499v-14.5H178v14.5H192.5z M163.5,145.999H149v-14.5h-14.5v-14.5H120V102.5h-14.5V88H91V73.5
	H76.5V59H62V44.5H47.5v144.499h145v-14.5H178v-14h-14.5V145.999z"/>
</svg>
