<?xml version="1.0" encoding="utf-8"?>
<!-- Generator: Adobe Illustrator 17.0.0, SVG Export Plug-In . SVG Version: 6.00 Build 0)  -->
<!DOCTYPE svg PUBLIC "-//W3C//DTD SVG 1.1//EN" "http://www.w3.org/Graphics/SVG/1.1/DTD/svg11.dtd">
<svg version="1.1" id="mnemonic" xmlns="http://www.w3.org/2000/svg" xmlns:xlink="http://www.w3.org/1999/xlink" x="0px" y="0px"
	 width="240px" height="234px" viewBox="0 0 240 234" enable-background="new 0 0 240 234" xml:space="preserve">
<g>
	<radialGradient id="SVGID_1_" cx="97.7109" cy="81.2863" r="143.4321" gradientUnits="userSpaceOnUse">
		<stop  offset="0" style="stop-color:#192900;stop-opacity:0.85"/>
		<stop  offset="0.7669" style="stop-color:#192900"/>
	</radialGradient>
	<rect x="10" y="10" fill-rule="evenodd" clip-rule="evenodd" fill="url(#SVGID_1_)" width="220" height="214"/>
</g>
<g>
	<path fill-rule="evenodd" clip-rule="evenodd" fill="#B2D235" d="M0,0v233.999h240.001V0H0z M10,10h220.001v213.999H10V10z"/>
</g>
<path fill-rule="evenodd" clip-rule="evenodd" fill="#B2D235" d="M40.773,53.25h23.43c0.825,0,1.155,0.17,1.32,0.994
	c4.125,15.346,16.005,65.175,18.81,82.005h0.165c3.135-15.346,16.995-65.783,21.285-81.953c0.165-0.824,0.495-1.047,1.32-1.047
	h22.605c0.825,0,0.99,0.164,1.155,0.824l3.96,108.105c0.165,0.99-0.33,1.32-1.154,1.32h-16.006c-0.989,0-1.154-0.459-1.154-1.283
	c-0.66-35.311-0.66-85.222-0.66-93.966h-0.165c-2.806,14.024-17.325,70.371-23.595,93.966c-0.165,0.99-0.66,1.283-1.32,1.283h-14.52
	c-0.825,0-1.32-0.293-1.485-1.119c-6.105-24.584-17.325-75.486-21.12-94.13h-0.33c0,13.035-1.32,58.162-2.64,93.966
	c0,0.99-0.495,1.283-1.155,1.283h-14.52c-0.99,0-1.32-0.33-1.32-1.156L39.618,54.24C39.783,53.414,39.948,53.25,40.773,53.25z
	 M206.5,146.751c0,1.154,0.164,4.619,0.494,10.23c0,0.66-0.066,0.99-0.727,1.154c-8.746,3.301-18.438,6.766-30.648,6.766
	c-15.014,0-29.369-5.775-29.369-28.875V83.32c0-0.826,0.33-1.32,1.154-1.32h15.689c0.826,0,1.156,0.494,1.156,1.32v50.56
	c0,9.736,3.682,15.016,13.912,15.016c4.125,0,7.863-0.824,10.338-1.814V83.32c0-0.826,0.33-1.32,1.154-1.32h15.689
	c0.99,0,1.156,0.494,1.156,1.32V146.751z"/>
</svg>
