<?xml version="1.0" encoding="utf-8"?>
<!-- Generator: Adobe Illustrator 16.2.1, SVG Export Plug-In . SVG Version: 6.00 Build 0)  -->
<!DOCTYPE svg PUBLIC "-//W3C//DTD SVG 1.1//EN" "http://www.w3.org/Graphics/SVG/1.1/DTD/svg11.dtd">
<svg version="1.1" id="Layer_1" xmlns="http://www.w3.org/2000/svg" xmlns:xlink="http://www.w3.org/1999/xlink" x="0px" y="0px"
	 width="50px" height="61.999px" viewBox="0 0 50 61.999" enable-background="new 0 0 50 61.999" xml:space="preserve">
<path fill="#CCCCCC" d="M28.999,0H2C0.896,0,0,0.896,0,2v57.999c0,1.104,0.896,2,2,2h46c1.105,0,2-0.896,2-2V12.701L28.999,0z"/>
<radialGradient id="SVGID_1_" cx="24.9922" cy="31.0093" r="38.5051" gradientTransform="matrix(1 0 0 1 0.0067 -0.0105)" gradientUnits="userSpaceOnUse">
	<stop  offset="0" style="stop-color:#FFFFFF"/>
	<stop  offset="0.3879" style="stop-color:#FCFCFC"/>
	<stop  offset="0.7015" style="stop-color:#F2F2F2"/>
	<stop  offset="0.9888" style="stop-color:#E1E1E1"/>
	<stop  offset="1" style="stop-color:#E0E0E0"/>
</radialGradient>
<path fill="url(#SVGID_1_)" d="M2,61.499c-0.827,0-1.5-0.673-1.5-1.5V2c0-0.827,0.673-1.5,1.5-1.5h26.866L49.5,12.99v47.009
	c0,0.827-0.672,1.5-1.5,1.5H2z"/>
<g>
	<path fill="#F79952" d="M12.942,33.226c-0.195,0-0.354,0.049-0.473,0.146c-0.116,0.1-0.212,0.229-0.284,0.384
		c-0.072,0.158-0.121,0.338-0.146,0.541c-0.028,0.204-0.04,0.412-0.04,0.621v3.598c0,0.461-0.069,0.851-0.207,1.172
		c-0.137,0.321-0.298,0.587-0.481,0.796c-0.185,0.21-0.37,0.368-0.562,0.473c-0.188,0.105-0.345,0.17-0.461,0.196v0.061
		c0.116,0.012,0.272,0.064,0.461,0.155c0.191,0.094,0.377,0.24,0.562,0.442c0.184,0.205,0.345,0.471,0.481,0.797
		c0.138,0.328,0.207,0.743,0.207,1.241v3.579c0,0.198,0.012,0.396,0.04,0.601c0.025,0.203,0.074,0.387,0.146,0.55
		c0.072,0.165,0.168,0.296,0.284,0.394c0.119,0.098,0.277,0.148,0.473,0.148h0.983v1.179h-1.377c-0.249,0-0.498-0.056-0.747-0.165
		c-0.249-0.112-0.476-0.277-0.678-0.494c-0.205-0.217-0.37-0.484-0.503-0.806c-0.131-0.321-0.195-0.691-0.195-1.11v-3.561
		c0-0.354-0.047-0.676-0.138-0.964c-0.094-0.289-0.215-0.531-0.366-0.729c-0.148-0.195-0.323-0.347-0.519-0.451
		c-0.198-0.105-0.4-0.159-0.61-0.159v-1.336c0.21,0,0.412-0.056,0.61-0.168c0.195-0.111,0.37-0.268,0.519-0.473
		c0.151-0.202,0.272-0.447,0.366-0.736c0.091-0.288,0.138-0.603,0.138-0.945v-3.579c0-0.419,0.064-0.789,0.195-1.11
		c0.133-0.321,0.298-0.592,0.503-0.809c0.202-0.216,0.429-0.379,0.678-0.491c0.249-0.111,0.498-0.167,0.747-0.167h1.377v1.181
		H12.942z"/>
	<path fill="#F79952" d="M34.982,49.12c0.198,0,0.354-0.051,0.473-0.148c0.119-0.098,0.215-0.226,0.287-0.385
		c0.069-0.155,0.121-0.337,0.146-0.54c0.025-0.202,0.039-0.41,0.039-0.619v-3.579c0-0.459,0.068-0.851,0.208-1.172
		c0.137-0.321,0.298-0.586,0.479-0.796c0.184-0.21,0.372-0.368,0.562-0.473c0.19-0.104,0.345-0.17,0.463-0.195v-0.061
		c-0.118-0.012-0.272-0.065-0.463-0.156c-0.189-0.094-0.378-0.24-0.562-0.442c-0.182-0.205-0.343-0.471-0.479-0.797
		c-0.14-0.328-0.208-0.742-0.208-1.241v-3.561c0-0.221-0.014-0.436-0.039-0.638s-0.077-0.387-0.146-0.552
		c-0.072-0.163-0.168-0.294-0.287-0.394c-0.118-0.098-0.274-0.146-0.473-0.146H34v-1.181h1.376c0.249,0,0.499,0.056,0.748,0.167
		c0.249,0.112,0.475,0.275,0.68,0.491c0.203,0.217,0.37,0.487,0.501,0.809c0.13,0.321,0.197,0.691,0.197,1.11v3.579
		c0,0.354,0.045,0.676,0.138,0.965c0.091,0.288,0.212,0.535,0.363,0.737c0.151,0.203,0.324,0.356,0.521,0.462
		c0.196,0.106,0.4,0.158,0.61,0.158v1.336c-0.21,0-0.414,0.057-0.61,0.168c-0.197,0.112-0.37,0.271-0.521,0.473
		c-0.151,0.203-0.272,0.447-0.363,0.729c-0.093,0.281-0.138,0.591-0.138,0.934v3.561c0,0.419-0.067,0.789-0.197,1.11
		c-0.131,0.321-0.298,0.589-0.501,0.806c-0.205,0.217-0.431,0.382-0.68,0.494c-0.249,0.109-0.499,0.165-0.748,0.165H34V49.12H34.982
		z"/>
</g>
<circle fill="#F79952" cx="19.5" cy="41.5" r="1.5"/>
<circle fill="#F79952" cx="24.5" cy="41.5" r="1.5"/>
<circle fill="#F79952" cx="29.5" cy="41.5" r="1.5"/>
<g>
	<g>
		<path fill="#AF331B" d="M50,12.701L28.999,0H2C0.896,0,0,0.896,0,2v20h50V12.701z"/>
	</g>
	<g>
		
			<radialGradient id="SVGID_2_" cx="25.4971" cy="34.4956" r="41.0634" gradientTransform="matrix(1 0 0 1 0.0067 0.0254)" gradientUnits="userSpaceOnUse">
			<stop  offset="0" style="stop-color:#F79952"/>
			<stop  offset="0.2231" style="stop-color:#F5944F"/>
			<stop  offset="0.4989" style="stop-color:#ED8546"/>
			<stop  offset="0.8011" style="stop-color:#E26C37"/>
			<stop  offset="1" style="stop-color:#D8572B"/>
		</radialGradient>
		<path fill="url(#SVGID_2_)" d="M49.5,12.99L28.866,0.5H2C1.173,0.5,0.5,1.173,0.5,2v20h49V12.99z"/>
	</g>
	<path fill="#D8572B" d="M38.232,19.262c-0.958,0.553-2.181,0.225-2.733-0.732L28.866,0.5L49.5,12.912L38.232,19.262z"/>
</g>
<g>
	<path fill="#FFFFFF" d="M8.24,16.396c-0.063-0.102-0.144-0.192-0.239-0.27c-0.096-0.077-0.204-0.138-0.325-0.181
		s-0.247-0.065-0.379-0.065c-0.241,0-0.446,0.046-0.614,0.14c-0.168,0.094-0.305,0.219-0.409,0.375
		c-0.105,0.157-0.182,0.336-0.229,0.536c-0.048,0.201-0.072,0.407-0.072,0.622c0,0.205,0.024,0.404,0.072,0.597
		c0.047,0.193,0.124,0.368,0.229,0.522c0.104,0.155,0.241,0.279,0.409,0.372c0.168,0.093,0.373,0.14,0.614,0.14
		c0.328,0,0.584-0.1,0.768-0.3c0.185-0.2,0.297-0.464,0.338-0.792h1.038c-0.026,0.305-0.097,0.58-0.211,0.826
		c-0.114,0.246-0.264,0.455-0.451,0.628c-0.187,0.173-0.405,0.305-0.655,0.396c-0.25,0.091-0.525,0.137-0.826,0.137
		c-0.374,0-0.709-0.064-1.007-0.195c-0.298-0.13-0.549-0.308-0.754-0.536c-0.205-0.227-0.362-0.495-0.471-0.802
		c-0.109-0.308-0.164-0.638-0.164-0.994c0-0.364,0.055-0.702,0.164-1.014c0.109-0.312,0.266-0.583,0.471-0.815
		c0.205-0.232,0.457-0.414,0.754-0.546c0.298-0.132,0.633-0.198,1.007-0.198c0.269,0,0.522,0.039,0.761,0.116
		c0.239,0.077,0.453,0.19,0.642,0.338c0.189,0.147,0.346,0.33,0.468,0.549s0.2,0.469,0.232,0.751H8.363
		C8.344,16.611,8.304,16.499,8.24,16.396z"/>
	<path fill="#FFFFFF" d="M10.991,18.769c0.06,0.113,0.138,0.206,0.235,0.276c0.098,0.07,0.213,0.123,0.346,0.157
		c0.131,0.034,0.268,0.051,0.409,0.051c0.096,0,0.198-0.008,0.308-0.024s0.211-0.047,0.307-0.092
		c0.096-0.045,0.175-0.108,0.239-0.188c0.063-0.079,0.095-0.181,0.095-0.304c0-0.131-0.042-0.239-0.126-0.321
		c-0.084-0.082-0.194-0.15-0.331-0.205s-0.292-0.103-0.464-0.144c-0.173-0.042-0.348-0.087-0.526-0.137
		c-0.182-0.045-0.359-0.102-0.532-0.167c-0.173-0.066-0.328-0.151-0.465-0.256c-0.136-0.105-0.247-0.235-0.331-0.393
		c-0.085-0.157-0.127-0.347-0.127-0.57c0-0.25,0.054-0.467,0.161-0.652c0.106-0.183,0.247-0.336,0.42-0.46
		c0.173-0.123,0.369-0.214,0.587-0.272c0.219-0.06,0.437-0.089,0.655-0.089c0.255,0,0.5,0.028,0.734,0.085
		c0.235,0.057,0.443,0.148,0.625,0.276s0.327,0.29,0.434,0.487c0.107,0.198,0.161,0.439,0.161,0.721h-1.038
		c-0.009-0.146-0.04-0.267-0.093-0.362c-0.052-0.095-0.121-0.17-0.208-0.225c-0.086-0.055-0.186-0.094-0.297-0.116
		c-0.112-0.023-0.233-0.034-0.365-0.034c-0.087,0-0.173,0.009-0.259,0.027c-0.087,0.018-0.166,0.05-0.236,0.096
		c-0.07,0.045-0.128,0.103-0.174,0.17c-0.045,0.069-0.068,0.155-0.068,0.259c0,0.096,0.018,0.173,0.055,0.232
		c0.036,0.059,0.108,0.114,0.214,0.164c0.107,0.05,0.255,0.1,0.444,0.15c0.188,0.051,0.436,0.114,0.741,0.191
		c0.091,0.019,0.217,0.051,0.379,0.099c0.161,0.047,0.322,0.124,0.481,0.229c0.159,0.104,0.297,0.245,0.413,0.419
		c0.116,0.175,0.174,0.4,0.174,0.672c0,0.224-0.043,0.43-0.13,0.622c-0.086,0.191-0.214,0.356-0.385,0.495
		c-0.171,0.14-0.383,0.248-0.635,0.325c-0.253,0.078-0.545,0.116-0.877,0.116c-0.268,0-0.529-0.033-0.782-0.099
		c-0.252-0.066-0.476-0.169-0.669-0.311c-0.193-0.141-0.347-0.321-0.461-0.54c-0.113-0.218-0.168-0.477-0.163-0.778h1.038
		C10.903,18.517,10.932,18.655,10.991,18.769z"/>
	<path fill="#FFFFFF" d="M15.423,18.769c0.059,0.113,0.137,0.206,0.235,0.276s0.213,0.123,0.345,0.157s0.269,0.051,0.41,0.051
		c0.096,0,0.198-0.008,0.307-0.024s0.212-0.047,0.308-0.092c0.095-0.045,0.175-0.108,0.238-0.188
		c0.064-0.079,0.096-0.181,0.096-0.304c0-0.131-0.042-0.239-0.126-0.321c-0.084-0.082-0.195-0.15-0.331-0.205
		c-0.137-0.055-0.291-0.103-0.464-0.144c-0.173-0.042-0.348-0.087-0.526-0.137c-0.182-0.045-0.359-0.102-0.533-0.167
		c-0.172-0.066-0.327-0.151-0.464-0.256c-0.137-0.105-0.248-0.235-0.332-0.393c-0.084-0.157-0.126-0.347-0.126-0.57
		c0-0.25,0.053-0.467,0.16-0.652c0.107-0.183,0.247-0.336,0.42-0.46c0.173-0.123,0.369-0.214,0.587-0.272
		c0.218-0.06,0.437-0.089,0.656-0.089c0.254,0,0.499,0.028,0.734,0.085c0.234,0.057,0.442,0.148,0.625,0.276
		c0.182,0.127,0.326,0.29,0.433,0.487c0.107,0.198,0.16,0.439,0.16,0.721h-1.038c-0.009-0.146-0.04-0.267-0.092-0.362
		c-0.053-0.095-0.122-0.17-0.209-0.225c-0.086-0.055-0.185-0.094-0.296-0.116c-0.111-0.023-0.233-0.034-0.366-0.034
		c-0.086,0-0.172,0.009-0.259,0.027c-0.086,0.018-0.165,0.05-0.235,0.096c-0.071,0.045-0.129,0.103-0.174,0.17
		c-0.046,0.069-0.069,0.155-0.069,0.259c0,0.096,0.018,0.173,0.055,0.232s0.108,0.114,0.215,0.164c0.107,0.05,0.255,0.1,0.443,0.15
		c0.189,0.051,0.436,0.114,0.741,0.191c0.091,0.019,0.217,0.051,0.379,0.099c0.162,0.047,0.322,0.124,0.481,0.229
		c0.159,0.104,0.297,0.245,0.413,0.419c0.116,0.175,0.174,0.4,0.174,0.672c0,0.224-0.043,0.43-0.129,0.622
		c-0.086,0.191-0.215,0.356-0.386,0.495c-0.17,0.14-0.382,0.248-0.635,0.325c-0.252,0.078-0.545,0.116-0.877,0.116
		c-0.269,0-0.529-0.033-0.782-0.099c-0.252-0.066-0.475-0.169-0.668-0.311c-0.193-0.141-0.348-0.321-0.461-0.54
		c-0.114-0.218-0.168-0.477-0.164-0.778h1.038C15.333,18.517,15.363,18.655,15.423,18.769z"/>
</g>
<g>
	<path d="M5.36,8.629h0.982l1.78,3.513V8.629h0.873v5.038H8.059l-1.825-3.575v3.575H5.36V8.629z"/>
	<path d="M13.327,13.219c-0.339,0.392-0.829,0.588-1.469,0.588c-0.641,0-1.131-0.196-1.469-0.588
		c-0.455-0.481-0.682-1.173-0.682-2.078c0-0.923,0.227-1.616,0.682-2.078c0.338-0.392,0.828-0.588,1.469-0.588
		c0.641,0,1.13,0.196,1.469,0.588c0.452,0.462,0.678,1.155,0.678,2.078C14.005,12.046,13.779,12.738,13.327,13.219z M12.742,12.454
		c0.218-0.308,0.327-0.745,0.327-1.312c0-0.565-0.109-1.002-0.327-1.311c-0.218-0.309-0.513-0.463-0.884-0.463
		S11.19,9.521,10.97,9.829c-0.221,0.308-0.332,0.745-0.332,1.312s0.11,1.005,0.332,1.312c0.221,0.308,0.517,0.461,0.888,0.461
		S12.523,12.761,12.742,12.454z"/>
	<path d="M17.979,8.629v0.892h-1.341v4.146h-0.943V9.521h-1.347V8.629H17.979z"/>
</g>
</svg>