<?xml version="1.0" encoding="utf-8"?>
<!-- Generator: Adobe Illustrator 17.0.0, SVG Export Plug-In . SVG Version: 6.00 Build 0)  -->
<!DOCTYPE svg PUBLIC "-//W3C//DTD SVG 1.1//EN" "http://www.w3.org/Graphics/SVG/1.1/DTD/svg11.dtd">
<svg version="1.1" id="mnemonic" xmlns="http://www.w3.org/2000/svg" xmlns:xlink="http://www.w3.org/1999/xlink" x="0px" y="0px"
	 width="240px" height="234px" viewBox="0 0 240 234" enable-background="new 0 0 240 234" xml:space="preserve">
<g>
	<radialGradient id="SVGID_1_" cx="97.7109" cy="81.2863" r="143.4321" gradientUnits="userSpaceOnUse">
		<stop  offset="0" style="stop-color:#002831;stop-opacity:0.85"/>
		<stop  offset="0.7669" style="stop-color:#002831"/>
	</radialGradient>
	<rect x="10" y="10" fill-rule="evenodd" clip-rule="evenodd" fill="url(#SVGID_1_)" width="220" height="214"/>
</g>
<g>
	<path fill-rule="evenodd" clip-rule="evenodd" fill="#60CBEA" d="M0,0v233.999h240.001V0H0z M10,10h220.001v213.999H10V10z"/>
</g>
<path fill-rule="evenodd" clip-rule="evenodd" fill="#60CBEA" d="M65.5,54.675c0-0.659,0.165-1.155,0.99-1.155
	c6.435-0.33,15.722-0.494,25.622-0.494c27.72,0,39.765,15.18,39.765,34.65c0,25.41-18.268,36.298-40.873,36.298
	c-3.795,0-5.115-0.164-7.755-0.164v38.535c0,0.824-0.33,1.154-1.155,1.154H66.656c-0.825,0-1.155-0.33-1.155-1.154V54.675z
	 M83.25,107.805c2.31,0.165,4.125,0.165,8.085,0.165c11.715,0,22.558-4.125,22.558-19.965c0-12.705-7.707-19.14-21.073-19.14
	c-3.96,0-7.755,0.165-9.57,0.33V107.805z M149.5,54.49c0-0.66,0.164-0.99,1.154-0.99h15.525c0.99,0,1.32,0.33,1.32,0.99v89.778
	c0,3.961,1.484,5.445,4.455,5.445c1.32,0,1.895-0.164,2.719-0.33c0.66,0,0.826,0.166,0.826,0.99v11.715
	c0,0.99-0.166,1.32-0.826,1.65c-2.145,0.824-5.209,1.154-8.674,1.154c-8.746,0-16.5-3.299-16.5-19.139V54.49z"/>
</svg>
