<?xml version="1.0" encoding="utf-8"?>
<!-- Generator: Adobe Illustrator 17.0.0, SVG Export Plug-In . SVG Version: 6.00 Build 0)  -->
<!DOCTYPE svg PUBLIC "-//W3C//DTD SVG 1.1//EN" "http://www.w3.org/Graphics/SVG/1.1/DTD/svg11.dtd">
<svg version="1.1" id="mnemonic" xmlns="http://www.w3.org/2000/svg" xmlns:xlink="http://www.w3.org/1999/xlink" x="0px" y="0px"
	 width="240px" height="234px" viewBox="0 0 240 234" enable-background="new 0 0 240 234" xml:space="preserve">
<g>
	<radialGradient id="SVGID_1_" cx="97.7109" cy="81.2863" r="143.4321" gradientUnits="userSpaceOnUse">
		<stop  offset="0" style="stop-color:#230625;stop-opacity:0.85"/>
		<stop  offset="0.7669" style="stop-color:#230625"/>
	</radialGradient>
	<rect x="10" y="10" fill-rule="evenodd" clip-rule="evenodd" fill="url(#SVGID_1_)" width="220" height="214"/>
</g>
<g>
	<path fill-rule="evenodd" clip-rule="evenodd" fill="#A978B4" d="M0,0v233.999h240.001V0H0z M10,10h220.001v213.999H10V10z"/>
</g>
<path fill-rule="evenodd" clip-rule="evenodd" fill="#A978B4" d="M62.25,54.777c0-0.66,0.165-1.155,0.99-1.155
	c6.435-0.33,15.84-0.495,25.74-0.495c27.72,0,39.765,15.18,39.765,34.65c0,25.41-18.385,36.3-40.99,36.3
	c-3.795,0-5.115-0.164-7.755-0.164v38.43c0,0.826-0.33,1.156-1.155,1.156H63.406c-0.825,0-1.155-0.33-1.155-1.156V54.777z
	 M80,107.906c2.31,0.166,4.125,0.166,8.085,0.166c11.715,0,22.675-4.125,22.675-19.965c0-12.705-7.825-19.141-21.19-19.141
	c-3.96,0-7.755,0.166-9.57,0.33V107.906z M144,98.832c0-1.154,0-4.125-0.494-9.734c0-0.826,0.115-0.99,0.775-1.32
	c6.104-2.475,20.393-6.93,36.563-6.93c0.826,0,1.156,0.164,1.156,0.989v14.521c0,0.824-0.266,0.99-1.09,0.99
	c-6.271-0.33-15.445,0.494-18.91,1.979v63.016c0,0.826-0.33,1.156-1.156,1.156h-15.689c-0.825,0-1.155-0.33-1.155-1.156V98.832z"/>
</svg>
