<?xml version="1.0" encoding="utf-8"?>
<!-- Generator: Adobe Illustrator 17.0.0, SVG Export Plug-In . SVG Version: 6.00 Build 0)  -->
<!DOCTYPE svg PUBLIC "-//W3C//DTD SVG 1.1 Basic//EN" "http://www.w3.org/Graphics/SVG/1.1/DTD/svg11-basic.dtd">
<svg version="1.1" baseProfile="basic" id="mnemonic"
	 xmlns="http://www.w3.org/2000/svg" xmlns:xlink="http://www.w3.org/1999/xlink" x="0px" y="0px" width="240px" height="234px"
	 viewBox="0 0 240 234" xml:space="preserve">
<linearGradient id="SVGID_1_" gradientUnits="userSpaceOnUse" x1="120.0002" y1="1.5004" x2="120.0002" y2="233.509">
	<stop  offset="0" style="stop-color:#323232"/>
	<stop  offset="0.1961" style="stop-color:#1D1D1D"/>
	<stop  offset="0.4173" style="stop-color:#0D0D0D"/>
	<stop  offset="0.6666" style="stop-color:#030303"/>
	<stop  offset="1" style="stop-color:#000000"/>
</linearGradient>
<rect x="0" y="0" fill="url(#SVGID_1_)" width="240" height="234"/>
<path fill="#FFFFFF" d="M87.772,65.037c0.777,0,1.391,0,2.006,0c15.439,0.003,30.88-0.132,46.316,0.099
	c4.142,0.062,8.414,0.767,12.373,1.994c11.57,3.585,18.274,13.106,18.612,26.266c0.103,4.001-0.178,8.16-1.176,12.015
	c-3.068,11.848-11.661,17.748-23.13,19.949c-3.645,0.7-7.423,0.926-11.144,0.965c-11.383,0.12-22.768,0.044-34.153,0.044
	c-0.849,0-1.697,0-2.825,0c0,16.533,0,32.93,0,49.466c-2.424,0-4.569,0-6.878,0C87.772,139.008,87.772,102.175,87.772,65.037z
	 M94.686,120.236c14.438,0,28.614,0.129,42.785-0.076c4.446-0.064,8.743-1.498,12.502-4.045
	c8.312-5.634,10.878-13.846,10.133-23.381c-0.843-10.787-7.492-18.552-17.936-20.883c-2.704-0.604-5.555-0.74-8.341-0.757
	c-12.234-0.078-24.468-0.036-36.703-0.029c-0.817,0-1.634,0.068-2.44,0.103C94.686,87.654,94.686,103.842,94.686,120.236z"/>
</svg>
