<?xml version="1.0" encoding="utf-8"?>
<!-- Generator: Adobe Illustrator 17.0.0, SVG Export Plug-In . SVG Version: 6.00 Build 0)  -->
<!DOCTYPE svg PUBLIC "-//W3C//DTD SVG 1.1//EN" "http://www.w3.org/Graphics/SVG/1.1/DTD/svg11.dtd">
<svg version="1.1" id="mnemonic" xmlns="http://www.w3.org/2000/svg" xmlns:xlink="http://www.w3.org/1999/xlink" x="0px" y="0px"
	 width="240px" height="234px" viewBox="0 0 240 234" enable-background="new 0 0 240 234" xml:space="preserve">
<g>
	<radialGradient id="SVGID_1_" cx="97.7105" cy="81.286" r="143.4315" gradientUnits="userSpaceOnUse">
		<stop  offset="0" style="stop-color:#002526;stop-opacity:0.85"/>
		<stop  offset="0.7669" style="stop-color:#002526"/>
	</radialGradient>
	<rect x="10" y="10" fill-rule="evenodd" clip-rule="evenodd" fill="url(#SVGID_1_)" width="219.999" height="213.999"/>
</g>
<g>
	<path fill-rule="evenodd" clip-rule="evenodd" fill="#00BABE" d="M0,0v233.999h240.001V0H0z M10,10h220.001v213.999H10V10z"/>
</g>
<path fill-rule="evenodd" clip-rule="evenodd" fill="#00BABE" d="M52.991,158.762c-0.66-0.494-0.99-1.154-0.99-2.145v-15.84
	c0-0.496,0.66-0.99,1.32-0.496c7.425,5.115,16.097,7.426,24.347,7.426c12.045,0,16.995-6.27,16.995-13.365
	c0-6.27-3.135-11.385-14.685-18.151l-5.94-3.135c-16.995-9.57-21.945-19.305-21.945-31.68c0-16.83,11.715-30.359,33.825-30.359
	c9.735,0,16.967,1.484,21.092,3.795c0.825,0.33,0.99,0.824,0.99,1.814v14.85c0,0.66-0.66,1.156-1.32,0.66
	c-5.115-3.3-12.678-4.949-20.433-4.949c-12.705,0-16.83,7.26-16.83,13.035c0,6.27,3.135,10.889,14.52,17.16l5.28,2.805
	c18.81,10.395,23.595,20.459,23.595,32.834c0,18.314-13.365,31.02-35.145,31.02C67.933,164.041,59.095,162.227,52.991,158.762z
	 M189,147.211c0,7.262-0.66,13.531-1.65,18.316c-4.949,20.625-20.9,25.74-36.574,25.74c-7.096,0-14.426-1.156-20.2-3.961
	c-0.66-0.494-0.825-0.99-0.825-1.65v-15.674c0-0.826,0.33-1.156,0.825-0.66c6.765,3.629,13.93,5.115,20.53,5.115
	c11.55,0,19.14-5.775,19.635-18.15c-3.301,1.32-6.436,1.98-10.726,1.98c-19.47,0-34.32-12.871-34.32-37.951
	c0-21.945,13.53-40.424,39.6-40.424c9.405,0,18.152,1.98,23.763,4.125c0.495,0.33,0.603,0.494,0.603,0.99
	c-0.495,3.795-0.66,7.754-0.66,9.404V147.211z M171,96.557c-1.814-0.824-4.455-1.32-7.095-1.32
	c-13.365,0-19.896,10.561-19.896,23.926c0,16.334,8.346,23.1,19.07,23.1c3.135,0,5.609-0.33,7.92-1.484V96.557z"/>
</svg>
