<?xml version="1.0" encoding="utf-8"?>
<!-- Generator: Adobe Illustrator 16.2.1, SVG Export Plug-In . SVG Version: 6.00 Build 0)  -->
<!DOCTYPE svg PUBLIC "-//W3C//DTD SVG 1.1//EN" "http://www.w3.org/Graphics/SVG/1.1/DTD/svg11.dtd">
<svg version="1.1" id="Layer_1" xmlns="http://www.w3.org/2000/svg" xmlns:xlink="http://www.w3.org/1999/xlink" x="0px" y="0px"
	 width="300px" height="300px" viewBox="0 0 300 300" enable-background="new 0 0 300 300" xml:space="preserve">
<path fill="#CCCCCC" d="M217.236,60h-20.742H94.853H74.11C71.819,60,70,61.462,70,63.753v24.892v78.822
	c0,2.292,1.819,4.533,4.11,4.533h20.743c2.291,0,4.147-2.241,4.147-4.533V93h10v18.462v62.229v116.16
	c0,2.291,2.123,4.147,4.119,4.147h21.68c1.997,0,3.201-1.856,3.201-4.147V177h19v112.852c0,2.291,1.832,4.148,3.828,4.148h21.681
	c1.996,0,2.491-1.857,2.491-4.148v-116.16v-62.229V93h8v74.467c0,2.292,1.203,4.533,3.494,4.533h20.742
	c2.291,0,3.764-2.241,3.764-4.533V88.645V63.753C221,61.462,219.527,60,217.236,60z"/>
<line fill="none" stroke="#CCCCCC" stroke-width="11" stroke-miterlimit="10" x1="82" y1="7" x2="208" y2="7"/>
<path fill="#CCCCCC" stroke="#CCCCCC" stroke-width="2" stroke-miterlimit="10" d="M190.128,20c0,0-14.553-10.25-33.933-12.88
	c-2.998-0.7-6.183-1.078-9.484-1.078c-4.06,0-7.941,0.575-11.52,1.614C117.503,10.913,104.596,20,104.596,20h13
	c-1.987,3.172-3.103,6.718-3.103,10.463c0,13.486,14.425,24.42,32.218,24.42c17.794,0,32.217-10.934,32.217-24.42
	c0-3.745-1.115-7.291-3.103-10.463H190.128z"/>
</svg>
